<svg xmlns="http://www.w3.org/2000/svg" xmlns:xlink="http://www.w3.org/1999/xlink" width="200" zoomAndPan="magnify" viewBox="0 0 150 149.999998" height="200" preserveAspectRatio="xMidYMid meet" version="1.0"><defs><clipPath id="823bb42cd3"><path d="M 19.113281 5.769531 L 130.863281 5.769531 L 130.863281 144.519531 L 19.113281 144.519531 Z M 19.113281 5.769531 " clip-rule="nonzero"/></clipPath></defs><g clip-path="url(#823bb42cd3)"><path fill="#000814" d="M 128.90625 50.339844 L 108.65625 50.339844 L 108.65625 18.566406 C 108.65625 17.949219 108.371094 17.394531 107.921875 17.03125 L 94.667969 6.308594 C 94.667969 6.308594 94.664062 6.304688 94.664062 6.304688 L 94.65625 6.292969 C 94.652344 6.289062 94.648438 6.289062 94.648438 6.289062 C 94.546875 6.210938 94.445312 6.140625 94.328125 6.082031 C 94.320312 6.078125 94.3125 6.074219 94.300781 6.070312 C 94.195312 6.015625 94.085938 5.972656 93.96875 5.9375 C 93.960938 5.933594 93.949219 5.929688 93.9375 5.929688 C 93.828125 5.898438 93.710938 5.878906 93.59375 5.867188 C 93.582031 5.867188 93.574219 5.867188 93.566406 5.867188 C 93.511719 5.859375 93.460938 5.855469 93.410156 5.855469 L 56.582031 5.855469 C 56.53125 5.855469 56.484375 5.859375 56.429688 5.859375 C 56.421875 5.859375 56.414062 5.859375 56.402344 5.859375 C 56.285156 5.871094 56.167969 5.894531 56.058594 5.921875 C 56.046875 5.925781 56.035156 5.925781 56.027344 5.929688 C 55.914062 5.964844 55.800781 6.007812 55.695312 6.0625 C 55.683594 6.066406 55.675781 6.070312 55.667969 6.074219 C 55.554688 6.132812 55.449219 6.203125 55.347656 6.28125 C 55.34375 6.285156 55.34375 6.285156 55.339844 6.289062 L 55.324219 6.300781 L 42.074219 17.03125 C 41.628906 17.394531 41.339844 17.949219 41.339844 18.566406 L 41.339844 50.339844 L 21.085938 50.339844 C 20 50.339844 19.113281 51.222656 19.113281 52.3125 L 19.113281 128.839844 C 19.113281 133.003906 20.625 136.792969 23.054688 139.558594 C 25.550781 142.386719 29.007812 144.144531 32.832031 144.144531 L 117.164062 144.144531 C 120.988281 144.144531 124.449219 142.386719 126.941406 139.558594 C 129.375 136.792969 130.882812 133.003906 130.882812 128.839844 L 130.882812 52.3125 C 130.882812 51.222656 130 50.339844 128.90625 50.339844 Z M 104.703125 19.507812 L 104.703125 50.339844 L 95.382812 50.339844 L 95.382812 11.964844 Z M 58.558594 50.339844 L 58.558594 23.074219 L 91.4375 23.074219 L 91.4375 50.34375 L 58.558594 50.34375 Z M 58.558594 9.800781 L 91.4375 9.800781 L 91.4375 19.125 L 58.558594 19.125 Z M 45.289062 19.507812 L 54.609375 11.964844 L 54.609375 50.339844 L 45.289062 50.339844 Z M 123.976562 136.949219 C 122.210938 138.953125 119.800781 140.191406 117.160156 140.191406 L 32.832031 140.191406 C 30.199219 140.191406 27.78125 138.949219 26.015625 136.949219 C 24.191406 134.878906 23.0625 132.011719 23.0625 128.839844 L 23.0625 62.191406 L 25.035156 62.191406 C 27.320312 62.191406 27.800781 58.871094 25.46875 58.285156 C 25.320312 58.257812 25.195312 58.238281 25.035156 58.238281 L 23.0625 58.238281 L 23.0625 54.289062 L 56.582031 54.289062 C 56.582031 54.289062 56.585938 54.289062 56.585938 54.289062 L 93.40625 54.289062 C 93.40625 54.289062 93.410156 54.289062 93.410156 54.289062 L 106.679688 54.289062 C 106.679688 54.289062 106.683594 54.289062 106.683594 54.289062 L 126.929688 54.289062 L 126.929688 58.398438 C 125.464844 59.015625 125.285156 61.308594 126.929688 62.015625 L 126.929688 128.84375 C 126.929688 132.011719 125.800781 134.882812 123.976562 136.949219 Z M 92.183594 58.242188 L 96.128906 58.242188 C 96.292969 58.242188 96.414062 58.261719 96.5625 58.289062 C 98.898438 58.875 98.417969 62.195312 96.128906 62.195312 L 92.183594 62.195312 C 92.019531 62.195312 91.898438 62.171875 91.75 62.144531 C 89.417969 61.5625 89.894531 58.242188 92.183594 58.242188 Z M 68.484375 58.242188 L 72.429688 58.242188 C 72.59375 58.242188 72.714844 58.261719 72.863281 58.289062 C 75.195312 58.875 74.714844 62.195312 72.429688 62.195312 L 68.484375 62.195312 C 68.320312 62.195312 68.199219 62.171875 68.050781 62.144531 C 65.71875 61.5625 66.199219 58.242188 68.484375 58.242188 Z M 80.332031 58.242188 L 84.28125 58.242188 C 84.441406 58.242188 84.5625 58.261719 84.710938 58.289062 C 87.046875 58.875 86.566406 62.195312 84.28125 62.195312 L 80.332031 62.195312 C 80.167969 62.195312 80.046875 62.171875 79.898438 62.144531 C 77.566406 61.5625 78.046875 58.242188 80.332031 58.242188 Z M 119.832031 62.191406 L 115.882812 62.191406 C 115.71875 62.191406 115.597656 62.167969 115.449219 62.140625 C 113.117188 61.558594 113.597656 58.238281 115.882812 58.238281 L 119.832031 58.238281 C 119.992188 58.238281 120.113281 58.257812 120.261719 58.285156 C 122.597656 58.871094 122.117188 62.191406 119.832031 62.191406 Z M 107.980469 62.191406 L 104.03125 62.191406 C 103.867188 62.191406 103.746094 62.167969 103.597656 62.140625 C 101.265625 61.558594 101.746094 58.238281 104.03125 58.238281 L 107.980469 58.238281 C 108.140625 58.238281 108.261719 58.257812 108.410156 58.285156 C 110.746094 58.871094 110.265625 62.191406 107.980469 62.191406 Z M 56.636719 58.242188 L 60.582031 58.242188 C 60.746094 58.242188 60.867188 58.261719 61.015625 58.289062 C 63.347656 58.875 62.867188 62.195312 60.582031 62.195312 L 56.636719 62.195312 C 56.472656 62.195312 56.351562 62.171875 56.203125 62.144531 C 53.871094 61.5625 54.351562 58.242188 56.636719 58.242188 Z M 48.734375 62.191406 L 44.785156 62.191406 C 44.625 62.191406 44.503906 62.167969 44.355469 62.140625 C 42.019531 61.558594 42.5 58.238281 44.785156 58.238281 L 48.734375 58.238281 C 48.898438 58.238281 49.019531 58.257812 49.167969 58.285156 C 51.5 58.871094 51.023438 62.191406 48.734375 62.191406 Z M 36.886719 62.191406 L 32.933594 62.191406 C 32.773438 62.191406 32.652344 62.167969 32.503906 62.140625 C 30.167969 61.558594 30.648438 58.238281 32.933594 58.238281 L 36.882812 58.238281 C 37.046875 58.238281 37.167969 58.257812 37.316406 58.285156 C 39.652344 58.871094 39.171875 62.191406 36.886719 62.191406 Z M 100.210938 79.011719 C 99.214844 77.867188 97.878906 76.957031 96.320312 76.332031 C 93.984375 75.402344 91.109375 75.117188 88.148438 75.671875 L 88.070312 75.6875 C 85.183594 76.242188 82.191406 77.59375 79.515625 79.910156 C 77.855469 81.347656 76.316406 83.160156 75 85.390625 C 73.683594 83.160156 72.144531 81.347656 70.484375 79.910156 C 67.78125 77.566406 64.757812 76.214844 61.851562 75.671875 C 58.890625 75.117188 56.015625 75.402344 53.679688 76.332031 C 52.121094 76.957031 50.78125 77.867188 49.789062 79.011719 C 49.117188 79.792969 48.546875 80.601562 48.074219 81.433594 L 48.007812 81.5625 C 45.042969 86.929688 46.121094 93.144531 49.386719 99.222656 C 52.484375 105.007812 57.609375 110.714844 62.984375 115.378906 C 66.71875 118.621094 70.605469 121.378906 74.039062 123.316406 C 74.664062 123.671875 75.402344 123.644531 75.980469 123.3125 C 79.414062 121.367188 83.292969 118.617188 87.019531 115.378906 C 92.402344 110.714844 97.519531 105.003906 100.621094 99.222656 L 100.679688 99.105469 C 103.921875 93.011719 104.960938 86.800781 101.929688 81.429688 C 101.453125 80.597656 100.882812 79.789062 100.210938 79.011719 Z M 97.203125 97.261719 L 97.148438 97.359375 C 94.28125 102.699219 89.492188 108.019531 84.441406 112.402344 C 81.242188 115.179688 77.957031 117.566406 75 119.332031 C 72.042969 117.566406 68.757812 115.179688 65.558594 112.402344 C 60.507812 108.019531 55.714844 102.699219 52.851562 97.359375 C 50.195312 92.398438 49.234375 87.472656 51.449219 83.460938 L 51.496094 83.375 C 51.84375 82.765625 52.265625 82.167969 52.765625 81.589844 C 53.34375 80.921875 54.160156 80.378906 55.128906 79.992188 C 56.800781 79.324219 58.90625 79.132812 61.125 79.542969 C 63.398438 79.96875 65.769531 81.03125 67.910156 82.890625 C 69.96875 84.675781 71.824219 87.203125 73.171875 90.589844 C 73.363281 91.078125 73.75 91.488281 74.273438 91.695312 C 75.285156 92.09375 76.429688 91.601562 76.828125 90.589844 C 78.179688 87.199219 80.03125 84.675781 82.089844 82.886719 C 84.214844 81.046875 86.558594 79.980469 88.804688 79.550781 L 88.871094 79.542969 C 91.089844 79.128906 93.195312 79.324219 94.867188 79.992188 C 95.839844 80.378906 96.652344 80.925781 97.230469 81.589844 C 97.730469 82.167969 98.152344 82.765625 98.503906 83.371094 C 100.761719 87.375 99.835938 92.300781 97.203125 97.261719 Z M 97.203125 97.261719 " fill-opacity="1" fill-rule="nonzero"/></g></svg>