<svg xmlns="http://www.w3.org/2000/svg" xmlns:xlink="http://www.w3.org/1999/xlink" width="200" zoomAndPan="magnify" viewBox="0 0 150 149.999998" height="200" preserveAspectRatio="xMidYMid meet" version="1.0"><defs><clipPath id="56de9eca08"><path d="M 42 2.550781 L 108 2.550781 L 108 68 L 42 68 Z M 42 2.550781 " clip-rule="nonzero"/></clipPath><clipPath id="3e70364468"><path d="M 22.292969 73 L 128 73 L 128 147.300781 L 22.292969 147.300781 Z M 22.292969 73 " clip-rule="nonzero"/></clipPath></defs><g clip-path="url(#56de9eca08)"><path fill="#ffc300" d="M 74.996094 67.023438 C 92.800781 67.023438 107.234375 52.589844 107.234375 34.785156 C 107.234375 16.980469 92.800781 2.546875 74.996094 2.546875 C 57.191406 2.546875 42.757812 16.980469 42.757812 34.785156 C 42.757812 52.589844 57.191406 67.023438 74.996094 67.023438 " fill-opacity="1" fill-rule="nonzero"/></g><g clip-path="url(#3e70364468)"><path fill="#ffc300" d="M 32.460938 147.4375 L 117.53125 147.4375 C 123.117188 147.4375 127.648438 142.90625 127.648438 137.320312 L 127.648438 114.328125 C 127.648438 91.601562 109.222656 73.179688 86.5 73.179688 L 63.492188 73.179688 C 40.765625 73.179688 22.34375 91.601562 22.34375 114.328125 L 22.34375 137.320312 C 22.34375 142.90625 26.875 147.4375 32.460938 147.4375 " fill-opacity="1" fill-rule="nonzero"/></g></svg>