<svg xmlns="http://www.w3.org/2000/svg" xmlns:xlink="http://www.w3.org/1999/xlink" width="200" zoomAndPan="magnify" viewBox="0 0 150 149.999998" height="200" preserveAspectRatio="xMidYMid meet" version="1.0"><defs><clipPath id="1410d7f608"><path d="M 9.214844 8.730469 L 140.464844 8.730469 L 140.464844 141.480469 L 9.214844 141.480469 Z M 9.214844 8.730469 " clip-rule="nonzero"/></clipPath></defs><g clip-path="url(#1410d7f608)"><path fill="#003566" d="M 130.878906 53.125 L 139.066406 23.898438 L 125.792969 35.90625 L 97.339844 35.90625 L 97.339844 38.867188 L 81.652344 69.871094 L 81.652344 23.898438 L 125.792969 23.898438 L 140.664062 8.910156 L 119.683594 8.730469 L 117.308594 11.105469 L 32.683594 11.105469 L 30.3125 8.730469 L 9.328125 8.910156 L 24.203125 23.898438 L 68.351562 23.898438 L 68.351562 69.871094 L 52.664062 38.867188 L 52.664062 35.90625 L 24.203125 35.90625 L 10.925781 23.898438 L 19.117188 53.125 L 24.210938 53.804688 L 24.210938 69.796875 L 18.265625 75.742188 L 24.210938 81.699219 L 24.210938 98.453125 L 15.296875 98.453125 L 37.003906 115.945312 L 37.003906 115.550781 L 37.515625 115.945312 L 37.515625 80.894531 L 42.667969 75.742188 L 37.515625 70.589844 L 37.515625 48.710938 L 42.792969 48.710938 L 68.351562 99.210938 L 68.351562 126.839844 L 60.511719 126.839844 L 74.996094 141.257812 L 89.484375 126.839844 L 81.652344 126.839844 L 81.652344 99.210938 L 107.210938 48.710938 L 112.476562 48.710938 L 112.476562 70.589844 L 107.324219 75.742188 L 112.476562 80.894531 L 112.476562 115.945312 L 112.988281 115.550781 L 112.988281 115.945312 L 134.699219 98.453125 L 125.78125 98.453125 L 125.78125 81.699219 L 131.738281 75.742188 L 125.78125 69.796875 L 125.78125 53.804688 Z M 130.878906 53.125 " fill-opacity="1" fill-rule="nonzero"/></g></svg>