<svg xmlns="http://www.w3.org/2000/svg" xmlns:xlink="http://www.w3.org/1999/xlink" width="234" zoomAndPan="magnify" viewBox="0 0 175.5 175.499993" height="234" preserveAspectRatio="xMidYMid meet" version="1.0"><defs><g/><clipPath id="1473f47bf3"><path d="M 0 0 L 175 0 L 175 175 L 0 175 Z M 0 0 " clip-rule="nonzero"/></clipPath><clipPath id="8d9f4624f2"><path d="M 2.53125 2.640625 L 171.550781 2.640625 L 171.550781 171.65625 L 2.53125 171.65625 Z M 2.53125 2.640625 " clip-rule="nonzero"/></clipPath><clipPath id="11de3ccc5e"><path d="M 14.285156 90.117188 L 30.507812 90.117188 L 30.507812 111.804688 L 14.285156 111.804688 Z M 14.285156 90.117188 " clip-rule="nonzero"/></clipPath><clipPath id="0dcd8c6b3f"><path d="M 143.6875 90.117188 L 160.140625 90.117188 L 160.140625 111.804688 L 143.6875 111.804688 Z M 143.6875 90.117188 " clip-rule="nonzero"/></clipPath><clipPath id="879df4ac1e"><path d="M 54.179688 56.550781 L 120.738281 56.550781 L 120.738281 123.859375 L 54.179688 123.859375 Z M 54.179688 56.550781 " clip-rule="nonzero"/></clipPath><clipPath id="9bea1fbdab"><path d="M 54 119 L 121 119 L 121 135 L 54 135 Z M 54 119 " clip-rule="nonzero"/></clipPath><clipPath id="4aa816e8d8"><path d="M 73.597656 90.117188 L 121.082031 119.972656 L 100.78125 152.261719 L 53.296875 122.40625 Z M 73.597656 90.117188 " clip-rule="nonzero"/></clipPath><clipPath id="1608b58fc6"><path d="M 73.597656 90.117188 L 121.082031 119.972656 L 100.78125 152.261719 L 53.296875 122.40625 Z M 73.597656 90.117188 " clip-rule="nonzero"/></clipPath></defs><g clip-path="url(#1473f47bf3)"><path fill="#ffc300" d="M 175.878906 87.996094 C 175.878906 89.433594 175.84375 90.871094 175.773438 92.308594 C 175.703125 93.746094 175.597656 95.179688 175.457031 96.609375 C 175.316406 98.042969 175.140625 99.46875 174.929688 100.890625 C 174.71875 102.3125 174.472656 103.730469 174.191406 105.140625 C 173.910156 106.550781 173.59375 107.957031 173.246094 109.351562 C 172.894531 110.746094 172.511719 112.132812 172.09375 113.507812 C 171.679688 114.882812 171.226562 116.25 170.742188 117.601562 C 170.257812 118.957031 169.742188 120.300781 169.191406 121.628906 C 168.640625 122.957031 168.058594 124.269531 167.441406 125.570312 C 166.828125 126.871094 166.179688 128.15625 165.503906 129.425781 C 164.824219 130.691406 164.117188 131.945312 163.375 133.175781 C 162.636719 134.410156 161.867188 135.625 161.070312 136.820312 C 160.269531 138.019531 159.441406 139.191406 158.585938 140.347656 C 157.726562 141.503906 156.84375 142.636719 155.929688 143.75 C 155.019531 144.859375 154.078125 145.949219 153.113281 147.015625 C 152.148438 148.082031 151.15625 149.121094 150.140625 150.140625 C 149.121094 151.15625 148.082031 152.148438 147.015625 153.113281 C 145.949219 154.078125 144.859375 155.019531 143.75 155.929688 C 142.636719 156.84375 141.503906 157.726562 140.347656 158.585938 C 139.191406 159.441406 138.019531 160.269531 136.820312 161.070312 C 135.625 161.867188 134.410156 162.636719 133.175781 163.375 C 131.945312 164.117188 130.691406 164.824219 129.425781 165.503906 C 128.15625 166.179688 126.871094 166.828125 125.570312 167.441406 C 124.269531 168.058594 122.957031 168.640625 121.628906 169.191406 C 120.300781 169.742188 118.957031 170.257812 117.601562 170.742188 C 116.25 171.226562 114.882812 171.679688 113.507812 172.09375 C 112.132812 172.511719 110.746094 172.894531 109.351562 173.246094 C 107.957031 173.59375 106.550781 173.910156 105.140625 174.191406 C 103.730469 174.472656 102.3125 174.71875 100.890625 174.929688 C 99.46875 175.140625 98.042969 175.316406 96.609375 175.457031 C 95.179688 175.597656 93.746094 175.703125 92.308594 175.773438 C 90.871094 175.84375 89.433594 175.878906 87.996094 175.878906 C 86.558594 175.878906 85.121094 175.84375 83.683594 175.773438 C 82.246094 175.703125 80.8125 175.597656 79.382812 175.457031 C 77.949219 175.316406 76.523438 175.140625 75.101562 174.929688 C 73.679688 174.71875 72.261719 174.472656 70.851562 174.191406 C 69.441406 173.910156 68.039062 173.59375 66.644531 173.246094 C 65.246094 172.894531 63.863281 172.511719 62.484375 172.09375 C 61.109375 171.679688 59.742188 171.226562 58.390625 170.742188 C 57.035156 170.257812 55.695312 169.742188 54.363281 169.191406 C 53.035156 168.640625 51.722656 168.058594 50.421875 167.441406 C 49.121094 166.828125 47.835938 166.179688 46.570312 165.503906 C 45.300781 164.824219 44.050781 164.117188 42.816406 163.375 C 41.582031 162.636719 40.367188 161.867188 39.171875 161.070312 C 37.976562 160.269531 36.800781 159.441406 35.644531 158.585938 C 34.488281 157.726562 33.355469 156.84375 32.242188 155.929688 C 31.132812 155.019531 30.042969 154.078125 28.976562 153.113281 C 27.910156 152.148438 26.871094 151.15625 25.855469 150.140625 C 24.835938 149.121094 23.84375 148.082031 22.878906 147.015625 C 21.914062 145.949219 20.972656 144.859375 20.0625 143.75 C 19.148438 142.636719 18.265625 141.503906 17.40625 140.347656 C 16.550781 139.191406 15.722656 138.019531 14.925781 136.820312 C 14.125 135.625 13.355469 134.410156 12.617188 133.175781 C 11.878906 131.945312 11.167969 130.691406 10.492188 129.425781 C 9.8125 128.15625 9.164062 126.871094 8.550781 125.570312 C 7.9375 124.269531 7.351562 122.957031 6.804688 121.628906 C 6.253906 120.300781 5.734375 118.957031 5.25 117.601562 C 4.765625 116.25 4.316406 114.882812 3.898438 113.507812 C 3.480469 112.132812 3.097656 110.746094 2.746094 109.351562 C 2.398438 107.957031 2.082031 106.550781 1.800781 105.140625 C 1.519531 103.730469 1.277344 102.3125 1.066406 100.890625 C 0.851562 99.46875 0.675781 98.042969 0.535156 96.609375 C 0.394531 95.179688 0.289062 93.746094 0.21875 92.308594 C 0.148438 90.871094 0.113281 89.433594 0.113281 87.996094 C 0.113281 86.558594 0.148438 85.121094 0.21875 83.683594 C 0.289062 82.246094 0.394531 80.8125 0.535156 79.382812 C 0.675781 77.949219 0.851562 76.523438 1.066406 75.101562 C 1.277344 73.679688 1.519531 72.261719 1.800781 70.851562 C 2.082031 69.441406 2.398438 68.039062 2.746094 66.644531 C 3.097656 65.246094 3.480469 63.863281 3.898438 62.484375 C 4.316406 61.109375 4.765625 59.742188 5.25 58.390625 C 5.734375 57.035156 6.253906 55.695312 6.804688 54.363281 C 7.351562 53.035156 7.9375 51.722656 8.550781 50.421875 C 9.164062 49.121094 9.8125 47.835938 10.492188 46.570312 C 11.167969 45.300781 11.878906 44.050781 12.617188 42.816406 C 13.355469 41.582031 14.125 40.367188 14.925781 39.171875 C 15.722656 37.976562 16.550781 36.800781 17.40625 35.644531 C 18.265625 34.488281 19.148438 33.355469 20.0625 32.242188 C 20.972656 31.132812 21.914062 30.042969 22.878906 28.976562 C 23.84375 27.910156 24.835938 26.871094 25.855469 25.855469 C 26.871094 24.835938 27.910156 23.84375 28.976562 22.878906 C 30.042969 21.914062 31.132812 20.972656 32.242188 20.0625 C 33.355469 19.148438 34.488281 18.265625 35.644531 17.40625 C 36.800781 16.550781 37.976562 15.722656 39.171875 14.925781 C 40.367188 14.125 41.582031 13.355469 42.816406 12.617188 C 44.050781 11.878906 45.300781 11.167969 46.570312 10.492188 C 47.835938 9.8125 49.121094 9.164062 50.421875 8.550781 C 51.722656 7.9375 53.035156 7.351562 54.363281 6.804688 C 55.695312 6.253906 57.035156 5.734375 58.390625 5.25 C 59.742188 4.765625 61.109375 4.316406 62.484375 3.898438 C 63.863281 3.480469 65.246094 3.097656 66.644531 2.746094 C 68.039062 2.398438 69.441406 2.082031 70.851562 1.800781 C 72.261719 1.519531 73.679688 1.277344 75.101562 1.066406 C 76.523438 0.851562 77.949219 0.675781 79.382812 0.535156 C 80.8125 0.394531 82.246094 0.289062 83.683594 0.21875 C 85.121094 0.148438 86.558594 0.113281 87.996094 0.113281 C 89.433594 0.113281 90.871094 0.148438 92.308594 0.21875 C 93.746094 0.289062 95.179688 0.394531 96.609375 0.535156 C 98.042969 0.675781 99.46875 0.851562 100.890625 1.066406 C 102.3125 1.277344 103.730469 1.519531 105.140625 1.800781 C 106.550781 2.082031 107.957031 2.398438 109.351562 2.746094 C 110.746094 3.097656 112.132812 3.480469 113.507812 3.898438 C 114.882812 4.316406 116.25 4.765625 117.601562 5.25 C 118.957031 5.734375 120.300781 6.253906 121.628906 6.804688 C 122.957031 7.351562 124.269531 7.9375 125.570312 8.550781 C 126.871094 9.164062 128.15625 9.8125 129.425781 10.492188 C 130.691406 11.167969 131.945312 11.878906 133.175781 12.617188 C 134.410156 13.355469 135.625 14.125 136.820312 14.925781 C 138.019531 15.722656 139.191406 16.550781 140.347656 17.40625 C 141.503906 18.265625 142.636719 19.148438 143.75 20.0625 C 144.859375 20.972656 145.949219 21.914062 147.015625 22.878906 C 148.082031 23.84375 149.121094 24.835938 150.140625 25.855469 C 151.15625 26.871094 152.148438 27.910156 153.113281 28.976562 C 154.078125 30.042969 155.019531 31.132812 155.929688 32.242188 C 156.84375 33.355469 157.726562 34.488281 158.585938 35.644531 C 159.441406 36.800781 160.269531 37.976562 161.070312 39.171875 C 161.867188 40.367188 162.636719 41.582031 163.375 42.816406 C 164.117188 44.050781 164.824219 45.300781 165.503906 46.570312 C 166.179688 47.835938 166.828125 49.121094 167.441406 50.421875 C 168.058594 51.722656 168.640625 53.035156 169.191406 54.363281 C 169.742188 55.695312 170.257812 57.035156 170.742188 58.390625 C 171.226562 59.742188 171.679688 61.109375 172.09375 62.484375 C 172.511719 63.863281 172.894531 65.246094 173.246094 66.644531 C 173.59375 68.039062 173.910156 69.441406 174.191406 70.851562 C 174.472656 72.261719 174.71875 73.679688 174.929688 75.101562 C 175.140625 76.523438 175.316406 77.949219 175.457031 79.382812 C 175.597656 80.8125 175.703125 82.246094 175.773438 83.683594 C 175.84375 85.121094 175.878906 86.558594 175.878906 87.996094 Z M 175.878906 87.996094 " fill-opacity="1" fill-rule="nonzero"/></g><path fill="#ffc300" d="M 133.164062 46.761719 L 75.65625 104.265625 L 42.832031 71.4375 L 30.347656 83.917969 L 75.65625 129.230469 L 145.644531 59.242188 Z M 133.164062 46.761719 " fill-opacity="1" fill-rule="nonzero"/><g clip-path="url(#8d9f4624f2)"><path fill="#ffffff" d="M 171.898438 87.324219 C 171.898438 88.710938 171.867188 90.09375 171.796875 91.480469 C 171.730469 92.863281 171.628906 94.246094 171.492188 95.625 C 171.355469 97.003906 171.1875 98.378906 170.984375 99.75 C 170.78125 101.121094 170.542969 102.484375 170.273438 103.84375 C 170 105.203125 169.699219 106.554688 169.363281 107.902344 C 169.023438 109.246094 168.65625 110.582031 168.253906 111.90625 C 167.851562 113.234375 167.414062 114.546875 166.949219 115.851562 C 166.480469 117.160156 165.984375 118.449219 165.453125 119.730469 C 164.921875 121.011719 164.359375 122.277344 163.769531 123.53125 C 163.175781 124.785156 162.554688 126.023438 161.898438 127.242188 C 161.246094 128.464844 160.5625 129.671875 159.851562 130.859375 C 159.140625 132.050781 158.398438 133.21875 157.628906 134.371094 C 156.859375 135.523438 156.058594 136.65625 155.234375 137.769531 C 154.410156 138.882812 153.554688 139.976562 152.675781 141.046875 C 151.796875 142.117188 150.894531 143.167969 149.960938 144.195312 C 149.03125 145.222656 148.074219 146.226562 147.097656 147.203125 C 146.117188 148.183594 145.113281 149.140625 144.085938 150.070312 C 143.058594 151 142.007812 151.90625 140.9375 152.785156 C 139.867188 153.664062 138.773438 154.519531 137.660156 155.34375 C 136.546875 156.167969 135.414062 156.964844 134.261719 157.738281 C 133.109375 158.507812 131.941406 159.246094 130.75 159.960938 C 129.5625 160.671875 128.355469 161.355469 127.136719 162.007812 C 125.914062 162.664062 124.675781 163.285156 123.421875 163.878906 C 122.167969 164.46875 120.902344 165.03125 119.621094 165.5625 C 118.34375 166.09375 117.050781 166.589844 115.746094 167.058594 C 114.4375 167.523438 113.125 167.960938 111.796875 168.363281 C 110.472656 168.765625 109.136719 169.132812 107.792969 169.46875 C 106.445312 169.808594 105.09375 170.109375 103.734375 170.382812 C 102.375 170.652344 101.011719 170.886719 99.640625 171.09375 C 98.269531 171.296875 96.894531 171.464844 95.515625 171.601562 C 94.136719 171.738281 92.753906 171.839844 91.371094 171.90625 C 89.984375 171.972656 88.601562 172.007812 87.214844 172.007812 C 85.828125 172.007812 84.445312 171.972656 83.058594 171.90625 C 81.675781 171.839844 80.292969 171.738281 78.914062 171.601562 C 77.535156 171.464844 76.160156 171.296875 74.789062 171.09375 C 73.417969 170.886719 72.054688 170.652344 70.695312 170.382812 C 69.335938 170.109375 67.984375 169.808594 66.636719 169.46875 C 65.292969 169.132812 63.957031 168.765625 62.632812 168.363281 C 61.304688 167.960938 59.992188 167.523438 58.683594 167.058594 C 57.378906 166.589844 56.089844 166.09375 54.808594 165.5625 C 53.527344 165.03125 52.261719 164.46875 51.007812 163.878906 C 49.753906 163.285156 48.515625 162.664062 47.292969 162.007812 C 46.074219 161.355469 44.867188 160.671875 43.679688 159.960938 C 42.488281 159.246094 41.320312 158.507812 40.167969 157.738281 C 39.015625 156.964844 37.882812 156.167969 36.769531 155.34375 C 35.65625 154.519531 34.5625 153.664062 33.492188 152.785156 C 32.421875 151.90625 31.371094 151 30.34375 150.070312 C 29.316406 149.140625 28.3125 148.183594 27.332031 147.203125 C 26.355469 146.226562 25.398438 145.222656 24.46875 144.195312 C 23.535156 143.167969 22.632812 142.117188 21.753906 141.046875 C 20.875 139.976562 20.019531 138.882812 19.195312 137.769531 C 18.371094 136.65625 17.574219 135.523438 16.800781 134.371094 C 16.03125 133.21875 15.292969 132.050781 14.578125 130.859375 C 13.867188 129.671875 13.183594 128.464844 12.53125 127.242188 C 11.875 126.023438 11.253906 124.785156 10.660156 123.53125 C 10.070312 122.277344 9.507812 121.011719 8.976562 119.730469 C 8.445312 118.449219 7.949219 117.160156 7.480469 115.851562 C 7.015625 114.546875 6.578125 113.234375 6.175781 111.90625 C 5.773438 110.582031 5.40625 109.246094 5.066406 107.902344 C 4.730469 106.554688 4.429688 105.203125 4.15625 103.84375 C 3.886719 102.484375 3.648438 101.121094 3.445312 99.75 C 3.242188 98.378906 3.074219 97.003906 2.9375 95.625 C 2.800781 94.246094 2.699219 92.863281 2.632812 91.480469 C 2.5625 90.09375 2.53125 88.710938 2.53125 87.324219 C 2.53125 85.9375 2.5625 84.554688 2.632812 83.167969 C 2.699219 81.785156 2.800781 80.402344 2.9375 79.023438 C 3.074219 77.644531 3.242188 76.269531 3.445312 74.898438 C 3.648438 73.527344 3.886719 72.164062 4.15625 70.804688 C 4.429688 69.445312 4.730469 68.09375 5.066406 66.746094 C 5.40625 65.402344 5.773438 64.066406 6.175781 62.742188 C 6.578125 61.414062 7.015625 60.101562 7.480469 58.792969 C 7.949219 57.488281 8.445312 56.195312 8.976562 54.917969 C 9.507812 53.636719 10.070312 52.371094 10.660156 51.117188 C 11.253906 49.863281 11.875 48.625 12.53125 47.402344 C 13.183594 46.183594 13.867188 44.976562 14.578125 43.789062 C 15.292969 42.597656 16.03125 41.429688 16.800781 40.277344 C 17.574219 39.125 18.371094 37.992188 19.195312 36.878906 C 20.019531 35.765625 20.875 34.671875 21.753906 33.601562 C 22.632812 32.53125 23.535156 31.480469 24.46875 30.453125 C 25.398438 29.425781 26.355469 28.421875 27.332031 27.441406 C 28.3125 26.464844 29.316406 25.507812 30.34375 24.578125 C 31.371094 23.644531 32.421875 22.742188 33.492188 21.863281 C 34.5625 20.984375 35.65625 20.128906 36.769531 19.304688 C 37.882812 18.480469 39.015625 17.679688 40.167969 16.910156 C 41.320312 16.140625 42.488281 15.398438 43.679688 14.6875 C 44.867188 13.976562 46.074219 13.292969 47.292969 12.640625 C 48.515625 11.984375 49.753906 11.363281 51.007812 10.769531 C 52.261719 10.175781 53.527344 9.617188 54.808594 9.085938 C 56.089844 8.554688 57.378906 8.058594 58.683594 7.589844 C 59.992188 7.121094 61.304688 6.6875 62.632812 6.285156 C 63.957031 5.882812 65.292969 5.515625 66.636719 5.175781 C 67.984375 4.839844 69.335938 4.539062 70.695312 4.265625 C 72.054688 3.996094 73.417969 3.757812 74.789062 3.554688 C 76.160156 3.351562 77.535156 3.183594 78.914062 3.046875 C 80.292969 2.910156 81.675781 2.808594 83.058594 2.742188 C 84.445312 2.671875 85.828125 2.640625 87.214844 2.640625 C 88.601562 2.640625 89.984375 2.671875 91.371094 2.742188 C 92.753906 2.808594 94.136719 2.910156 95.515625 3.046875 C 96.894531 3.183594 98.269531 3.351562 99.640625 3.554688 C 101.011719 3.757812 102.375 3.996094 103.734375 4.265625 C 105.09375 4.539062 106.445312 4.839844 107.792969 5.175781 C 109.136719 5.515625 110.472656 5.882812 111.796875 6.285156 C 113.125 6.6875 114.4375 7.121094 115.746094 7.589844 C 117.050781 8.058594 118.34375 8.554688 119.621094 9.085938 C 120.902344 9.617188 122.167969 10.175781 123.421875 10.769531 C 124.675781 11.363281 125.914062 11.984375 127.136719 12.640625 C 128.355469 13.292969 129.5625 13.976562 130.75 14.6875 C 131.941406 15.398438 133.109375 16.140625 134.261719 16.910156 C 135.414062 17.679688 136.546875 18.480469 137.660156 19.304688 C 138.773438 20.128906 139.867188 20.984375 140.9375 21.863281 C 142.007812 22.742188 143.058594 23.644531 144.085938 24.578125 C 145.113281 25.507812 146.117188 26.464844 147.097656 27.441406 C 148.074219 28.421875 149.03125 29.425781 149.960938 30.453125 C 150.894531 31.480469 151.796875 32.53125 152.675781 33.601562 C 153.554688 34.671875 154.410156 35.765625 155.234375 36.878906 C 156.058594 37.992188 156.859375 39.125 157.628906 40.277344 C 158.398438 41.429688 159.140625 42.597656 159.851562 43.789062 C 160.5625 44.976562 161.246094 46.183594 161.898438 47.402344 C 162.554688 48.625 163.175781 49.863281 163.769531 51.117188 C 164.359375 52.371094 164.921875 53.636719 165.453125 54.917969 C 165.984375 56.195312 166.480469 57.488281 166.949219 58.792969 C 167.414062 60.101562 167.851562 61.414062 168.253906 62.742188 C 168.65625 64.066406 169.023438 65.402344 169.363281 66.746094 C 169.699219 68.09375 170 69.445312 170.273438 70.804688 C 170.542969 72.164062 170.78125 73.527344 170.984375 74.898438 C 171.1875 76.269531 171.355469 77.644531 171.492188 79.023438 C 171.628906 80.402344 171.730469 81.785156 171.796875 83.167969 C 171.867188 84.554688 171.898438 85.9375 171.898438 87.324219 Z M 171.898438 87.324219 " fill-opacity="1" fill-rule="nonzero"/></g><path fill="#001d3d" d="M 122.421875 114.382812 C 125.226562 115.660156 128.035156 116.9375 130.839844 118.214844 C 136.882812 120.976562 142.925781 123.738281 148.96875 126.503906 C 152.710938 128.222656 153.765625 132.277344 151.261719 135.527344 C 138.476562 152.128906 121.851562 162.644531 101.183594 166.25 C 78.371094 170.226562 57.550781 165.113281 38.898438 151.378906 C 32.820312 146.871094 27.523438 141.578125 23.015625 135.5 C 20.589844 132.261719 21.601562 128.222656 25.292969 126.53125 C 33.441406 122.796875 41.59375 119.074219 49.75 115.367188 C 50.261719 115.179688 50.734375 114.917969 51.167969 114.589844 C 50.964844 114.542969 50.765625 114.566406 50.574219 114.65625 C 40.230469 118.300781 29.886719 121.945312 19.542969 125.578125 C 17.742188 126.210938 16.675781 125.785156 15.804688 124.09375 C 11.003906 114.75 7.96875 104.863281 7.199219 94.375 C 5.265625 68.042969 13.90625 45.722656 33.277344 27.78125 C 44.796875 17.117188 58.519531 10.601562 74.050781 8.183594 C 96.605469 4.667969 117.246094 9.589844 135.472656 23.355469 C 153.058594 36.640625 163.5 54.417969 166.660156 76.253906 C 169.082031 92.988281 166.207031 108.9375 158.542969 124.011719 C 157.628906 125.8125 156.59375 126.21875 154.679688 125.550781 C 145.636719 122.386719 136.609375 119.199219 127.554688 116.070312 C 125.855469 115.484375 124.21875 114.71875 122.421875 114.382812 Z M 10.742188 87.300781 C 10.738281 92.789062 11.320312 98.21875 12.492188 103.582031 C 13.664062 108.945312 15.394531 114.121094 17.6875 119.109375 C 18.722656 121.363281 18.730469 121.367188 21.09375 120.613281 C 26.097656 119.023438 31.097656 117.429688 36.097656 115.828125 C 37.3125 115.4375 37.589844 114.757812 37.039062 113.644531 C 36.957031 113.476562 36.863281 113.316406 36.78125 113.148438 C 27.414062 93.703125 28.207031 74.675781 39.882812 56.523438 C 40.859375 55.015625 41.90625 53.558594 43.023438 52.148438 C 44.136719 50.742188 45.316406 49.390625 46.5625 48.09375 C 47.804688 46.800781 49.109375 45.566406 50.472656 44.394531 C 51.832031 43.222656 53.25 42.121094 54.714844 41.085938 C 56.183594 40.046875 57.695312 39.085938 59.253906 38.191406 C 60.816406 37.300781 62.414062 36.484375 64.050781 35.746094 C 65.6875 35.007812 67.355469 34.347656 69.054688 33.765625 C 70.753906 33.1875 72.480469 32.6875 74.226562 32.273438 C 75.972656 31.855469 77.738281 31.523438 79.515625 31.277344 C 81.296875 31.027344 83.082031 30.867188 84.875 30.789062 C 86.671875 30.710938 88.464844 30.71875 90.257812 30.8125 C 92.050781 30.90625 93.839844 31.085938 95.613281 31.351562 C 97.390625 31.613281 99.152344 31.960938 100.894531 32.394531 C 102.636719 32.828125 104.359375 33.339844 106.050781 33.9375 C 107.746094 34.53125 109.410156 35.207031 111.039062 35.960938 C 112.667969 36.714844 114.261719 37.546875 115.8125 38.453125 C 117.363281 39.359375 118.867188 40.335938 120.324219 41.386719 C 121.78125 42.433594 123.1875 43.550781 124.539062 44.734375 C 125.886719 45.917969 127.179688 47.164062 128.414062 48.46875 C 129.644531 49.777344 130.8125 51.140625 131.914062 52.558594 C 133.019531 53.976562 134.050781 55.441406 135.015625 56.957031 C 135.976562 58.476562 136.863281 60.035156 137.679688 61.636719 C 138.492188 63.234375 139.230469 64.871094 139.886719 66.542969 C 140.542969 68.214844 141.121094 69.914062 141.617188 71.640625 C 142.113281 73.367188 142.527344 75.113281 142.855469 76.878906 C 143.183594 78.644531 143.429688 80.421875 143.589844 82.210938 C 143.75 84 143.824219 85.792969 143.8125 87.589844 C 143.800781 89.386719 143.707031 91.175781 143.523438 92.964844 C 143.34375 94.75 143.074219 96.523438 142.722656 98.285156 C 142.375 100.046875 141.9375 101.789062 141.421875 103.507812 C 140.90625 105.230469 140.308594 106.921875 139.628906 108.585938 C 138.949219 110.246094 138.195312 111.875 137.359375 113.464844 C 136.671875 114.800781 136.929688 115.433594 138.363281 115.890625 C 143.480469 117.527344 148.601562 119.15625 153.71875 120.785156 C 155.367188 121.308594 155.65625 121.1875 156.375 119.628906 C 163.398438 104.40625 165.355469 88.535156 162.015625 72.121094 C 153.539062 30.480469 112.550781 3.761719 71.019531 12.6875 C 36.0625 20.203125 10.75 51.539062 10.742188 87.300781 Z M 113.589844 107.988281 C 119.492188 109.863281 125.394531 111.742188 131.300781 113.617188 C 132.675781 114.054688 133.007812 113.929688 133.683594 112.679688 C 139.339844 102.214844 141.375 91.074219 139.570312 79.324219 C 139.351562 77.898438 139.074219 76.480469 138.738281 75.074219 C 138.40625 73.667969 138.015625 72.277344 137.566406 70.902344 C 137.117188 69.53125 136.613281 68.175781 136.054688 66.84375 C 135.496094 65.511719 134.882812 64.203125 134.21875 62.921875 C 133.550781 61.636719 132.835938 60.382812 132.066406 59.160156 C 131.296875 57.9375 130.480469 56.746094 129.613281 55.589844 C 128.746094 54.433594 127.835938 53.3125 126.878906 52.230469 C 125.921875 51.148438 124.917969 50.105469 123.875 49.105469 C 122.832031 48.105469 121.75 47.148438 120.628906 46.238281 C 119.507812 45.328125 118.351562 44.460938 117.160156 43.644531 C 115.96875 42.828125 114.746094 42.0625 113.492188 41.34375 C 112.234375 40.625 110.953125 39.960938 109.644531 39.351562 C 108.335938 38.738281 107.003906 38.179688 105.648438 37.675781 C 104.292969 37.175781 102.921875 36.726562 101.527344 36.335938 C 100.136719 35.945312 98.734375 35.613281 97.3125 35.335938 C 95.894531 35.0625 94.46875 34.84375 93.03125 34.6875 C 80.902344 33.351562 69.589844 35.871094 59.242188 42.335938 C 35.234375 57.328125 27.097656 88.082031 40.578125 112.609375 C 41.308594 113.933594 41.609375 114.0625 43.015625 113.613281 C 48.695312 111.808594 54.375 110.003906 60.050781 108.191406 C 60.234375 108.132812 60.480469 108.148438 60.558594 107.867188 C 59.914062 107.789062 59.273438 107.804688 58.632812 107.914062 C 54.023438 108.394531 49.410156 108.863281 44.800781 109.359375 C 43.90625 109.457031 43.371094 109.136719 42.984375 108.308594 C 38.402344 98.496094 37.023438 88.261719 39.230469 77.660156 C 44.867188 50.558594 71.171875 33.671875 98.179688 39.714844 C 128.40625 46.476562 144.792969 80.359375 131.347656 108.265625 C 130.933594 109.121094 130.398438 109.464844 129.460938 109.359375 C 126.695312 109.042969 123.929688 108.753906 121.160156 108.488281 C 118.644531 108.25 116.136719 107.855469 113.589844 107.988281 Z M 45.828125 123.46875 C 57.941406 138.667969 73.722656 145.339844 93.027344 143.585938 C 100.082031 142.90625 106.6875 140.796875 112.835938 137.265625 C 118.996094 133.796875 124.265625 129.3125 128.339844 123.460938 C 116.683594 134.222656 103.089844 140.261719 87.113281 140.253906 C 71.121094 140.25 57.539062 134.132812 45.828125 123.46875 Z M 45.828125 123.46875 " fill-opacity="1" fill-rule="nonzero"/><path fill="#ffc300" d="M 10.742188 87.300781 C 10.75 51.539062 36.0625 20.203125 71.019531 12.6875 C 112.550781 3.761719 153.539062 30.480469 162.015625 72.121094 C 165.355469 88.535156 163.398438 104.40625 156.375 119.628906 C 155.65625 121.1875 155.367188 121.308594 153.71875 120.785156 C 148.601562 119.15625 143.480469 117.523438 138.363281 115.890625 C 136.929688 115.433594 136.671875 114.800781 137.359375 113.464844 C 138.195312 111.875 138.949219 110.246094 139.628906 108.585938 C 140.308594 106.921875 140.90625 105.230469 141.421875 103.507812 C 141.9375 101.789062 142.375 100.046875 142.722656 98.285156 C 143.074219 96.523438 143.34375 94.75 143.523438 92.964844 C 143.707031 91.175781 143.800781 89.386719 143.8125 87.589844 C 143.824219 85.792969 143.75 84 143.589844 82.210938 C 143.429688 80.421875 143.183594 78.644531 142.855469 76.878906 C 142.527344 75.113281 142.113281 73.367188 141.617188 71.640625 C 141.121094 69.914062 140.542969 68.214844 139.886719 66.542969 C 139.230469 64.871094 138.492188 63.238281 137.679688 61.636719 C 136.863281 60.035156 135.976562 58.476562 135.011719 56.957031 C 134.050781 55.441406 133.019531 53.976562 131.914062 52.558594 C 130.8125 51.140625 129.644531 49.777344 128.414062 48.46875 C 127.179688 47.164062 125.886719 45.917969 124.539062 44.734375 C 123.1875 43.550781 121.78125 42.433594 120.324219 41.386719 C 118.867188 40.335938 117.363281 39.359375 115.8125 38.453125 C 114.261719 37.546875 112.667969 36.714844 111.039062 35.960938 C 109.410156 35.207031 107.746094 34.53125 106.050781 33.9375 C 104.359375 33.339844 102.636719 32.828125 100.894531 32.394531 C 99.152344 31.960938 97.390625 31.613281 95.613281 31.351562 C 93.835938 31.085938 92.050781 30.90625 90.257812 30.8125 C 88.464844 30.71875 86.671875 30.710938 84.875 30.789062 C 83.082031 30.867188 81.296875 31.027344 79.515625 31.277344 C 77.738281 31.523438 75.972656 31.855469 74.226562 32.273438 C 72.480469 32.6875 70.753906 33.1875 69.054688 33.765625 C 67.355469 34.347656 65.6875 35.007812 64.050781 35.746094 C 62.414062 36.484375 60.816406 37.300781 59.253906 38.191406 C 57.695312 39.085938 56.183594 40.046875 54.714844 41.085938 C 53.25 42.121094 51.832031 43.222656 50.472656 44.394531 C 49.109375 45.566406 47.804688 46.800781 46.5625 48.09375 C 45.316406 49.390625 44.136719 50.742188 43.023438 52.148438 C 41.90625 53.558594 40.859375 55.015625 39.882812 56.523438 C 28.207031 74.675781 27.414062 93.703125 36.78125 113.148438 C 36.863281 113.316406 36.957031 113.476562 37.039062 113.644531 C 37.589844 114.757812 37.3125 115.4375 36.097656 115.828125 C 31.097656 117.429688 26.097656 119.023438 21.09375 120.613281 C 18.730469 121.367188 18.722656 121.363281 17.6875 119.109375 C 15.394531 114.121094 13.664062 108.945312 12.492188 103.582031 C 11.320312 98.21875 10.738281 92.789062 10.742188 87.300781 Z M 10.742188 87.300781 " fill-opacity="1" fill-rule="nonzero"/><path fill="#ffc300" d="M 113.589844 107.988281 C 116.136719 107.855469 118.644531 108.25 121.160156 108.488281 C 123.929688 108.75 126.695312 109.039062 129.460938 109.359375 C 130.398438 109.464844 130.933594 109.121094 131.347656 108.265625 C 144.792969 80.359375 128.40625 46.476562 98.179688 39.714844 C 71.171875 33.671875 44.867188 50.558594 39.230469 77.660156 C 37.023438 88.261719 38.402344 98.496094 42.984375 108.308594 C 43.371094 109.136719 43.90625 109.457031 44.800781 109.359375 C 49.410156 108.863281 54.023438 108.394531 58.632812 107.914062 C 59.273438 107.804688 59.914062 107.789062 60.558594 107.867188 C 60.480469 108.148438 60.234375 108.132812 60.050781 108.191406 C 54.375 110.003906 48.695312 111.8125 43.015625 113.613281 C 41.609375 114.0625 41.308594 113.933594 40.578125 112.609375 C 27.097656 88.082031 35.234375 57.328125 59.242188 42.335938 C 69.589844 35.871094 80.902344 33.351562 93.03125 34.683594 C 94.46875 34.84375 95.894531 35.0625 97.3125 35.335938 C 98.734375 35.613281 100.136719 35.945312 101.527344 36.335938 C 102.921875 36.726562 104.292969 37.175781 105.648438 37.675781 C 107.003906 38.179688 108.335938 38.738281 109.644531 39.351562 C 110.953125 39.960938 112.234375 40.625 113.492188 41.34375 C 114.746094 42.058594 115.96875 42.828125 117.160156 43.644531 C 118.351562 44.460938 119.507812 45.328125 120.628906 46.238281 C 121.75 47.148438 122.832031 48.105469 123.875 49.105469 C 124.917969 50.105469 125.921875 51.148438 126.878906 52.230469 C 127.835938 53.3125 128.746094 54.433594 129.613281 55.589844 C 130.480469 56.746094 131.296875 57.9375 132.066406 59.160156 C 132.835938 60.382812 133.550781 61.636719 134.21875 62.921875 C 134.882812 64.203125 135.496094 65.511719 136.054688 66.84375 C 136.613281 68.175781 137.117188 69.53125 137.566406 70.902344 C 138.015625 72.277344 138.40625 73.667969 138.738281 75.074219 C 139.074219 76.480469 139.351562 77.898438 139.570312 79.324219 C 141.375 91.074219 139.339844 102.214844 133.683594 112.679688 C 133.007812 113.929688 132.675781 114.054688 131.300781 113.617188 C 125.394531 111.742188 119.492188 109.867188 113.589844 107.988281 Z M 113.589844 107.988281 " fill-opacity="1" fill-rule="nonzero"/><path fill="#ffc300" d="M 45.828125 123.46875 C 57.539062 134.132812 71.121094 140.25 87.113281 140.253906 C 103.089844 140.261719 116.683594 134.222656 128.339844 123.460938 C 124.265625 129.3125 118.996094 133.796875 112.835938 137.265625 C 106.6875 140.796875 100.082031 142.90625 93.027344 143.585938 C 73.722656 145.339844 57.941406 138.667969 45.828125 123.46875 Z M 45.828125 123.46875 " fill-opacity="1" fill-rule="nonzero"/><g clip-path="url(#11de3ccc5e)"><path fill="#001d3d" d="M 14.054688 90.125 L 26.257812 100.023438 L 23.269531 100.085938 L 27.8125 104.816406 L 25.136719 104.941406 L 30.738281 112.101562 L 18.472656 102.203125 L 21.523438 102.015625 L 16.667969 97.285156 L 19.40625 97.097656 Z M 14.054688 90.125 " fill-opacity="1" fill-rule="nonzero"/></g><g clip-path="url(#0dcd8c6b3f)"><path fill="#001d3d" d="M 160.375 90.125 L 148.167969 100.023438 L 151.160156 100.085938 L 146.613281 104.816406 L 149.289062 104.941406 L 143.6875 112.101562 L 155.953125 102.203125 L 152.902344 102.015625 L 157.757812 97.285156 L 155.019531 97.097656 Z M 160.375 90.125 " fill-opacity="1" fill-rule="nonzero"/></g><g fill="#001d3d" fill-opacity="1"><g transform="translate(30.185277, 61.144347)"><g><path d="M -8.984375 -5.78125 L -7.203125 -4.75 L -6.71875 -5.5625 L 0.609375 -1.25 L 0.125 -0.4375 L 1.921875 0.625 L 3.9375 -2.78125 L 2.140625 -3.84375 L 1.65625 -3.03125 L -2.75 -5.609375 L 5.03125 -4.515625 L 0.25 -10.71875 L 4.65625 -8.140625 L 4.1875 -7.328125 L 5.984375 -6.265625 L 7.984375 -9.671875 L 6.1875 -10.734375 L 5.71875 -9.9375 L -1.609375 -14.25 L -1.140625 -15.046875 L -2.921875 -16.078125 L -4.34375 -13.65625 L 0.8125 -7.0625 L -7.609375 -8.109375 Z M -8.984375 -5.78125 "/></g></g></g><g fill="#001d3d" fill-opacity="1"><g transform="translate(41.010521, 45.009126)"><g><path d="M 0.25 -0.375 L 1.671875 1.140625 L 4.5625 -1.546875 L 3.140625 -3.0625 L 2.34375 -2.328125 L 1.921875 -3.09375 L 4.171875 -5.1875 L 4.921875 -4.71875 L 4.171875 -4.015625 L 5.59375 -2.5 L 8.5625 -5.265625 L 7.140625 -6.78125 L 6.390625 -6.078125 L -2.859375 -11.90625 L -4.25 -10.625 L 0.875 -0.953125 Z M -0.90625 -8.453125 L 2.40625 -6.3125 L 0.953125 -4.953125 Z M -0.90625 -8.453125 "/></g></g></g><g fill="#001d3d" fill-opacity="1"><g transform="translate(54.074482, 34.148633)"><g><path d="M 1.296875 1.546875 L 4.796875 -0.28125 L 3.84375 -2.125 L 3.015625 -1.6875 L 0.703125 -6.125 L 6.625 -1.234375 L 8.296875 -2.109375 L 3.40625 -11.484375 L 4.25 -11.9375 L 3.296875 -13.765625 L -0.203125 -11.921875 L 0.75 -10.09375 L 1.578125 -10.53125 L 4 -5.890625 L -2.0625 -10.953125 L -4.546875 -9.65625 L -3.59375 -7.828125 L -2.765625 -8.265625 L 1.171875 -0.734375 L 0.34375 -0.296875 Z M 1.296875 1.546875 "/></g></g></g><g fill="#001d3d" fill-opacity="1"><g transform="translate(69.040292, 27.336387)"><g><path d="M -0.921875 -6.109375 L 1.015625 -6.546875 L 0.46875 -8.9375 L 1.71875 -9.21875 L 3.578125 -0.921875 L 2.671875 -0.71875 L 3.140625 1.3125 L 7 0.453125 L 6.53125 -1.578125 L 5.609375 -1.375 L 3.75 -9.671875 L 5 -9.953125 L 5.546875 -7.5625 L 7.484375 -8 L 6.484375 -12.390625 L -1.921875 -10.5 Z M -0.921875 -6.109375 "/></g></g></g><g fill="#001d3d" fill-opacity="1"><g transform="translate(85.068734, 24.706218)"><g><path d="M 0.421875 0.609375 L 1.65625 2.015625 L 5.75 2.109375 L 7.140625 0.765625 L 7.375 -9.140625 L 6.078125 -10.53125 L 2.03125 -10.625 L 0.65625 -9.296875 Z M 5.296875 -8.484375 L 5.09375 0.015625 L 2.5 -0.046875 L 2.703125 -8.546875 Z M 5.296875 -8.484375 "/></g></g></g><g fill="#001d3d" fill-opacity="1"><g transform="translate(99.430772, 25.829301)"><g><path d="M 2.84375 -9.15625 L 1.625 -4.46875 L 2.453125 -3.03125 L 5.984375 -2.109375 L 5.125 1.21875 L 2.453125 0.515625 L 2.828125 -0.953125 L 0.828125 -1.46875 L 0.265625 0.703125 L 1.234375 2.359375 L 5.125 3.375 L 6.984375 2.25 L 8.203125 -2.40625 L 7.359375 -3.84375 L 3.828125 -4.78125 L 4.59375 -7.703125 L 7.265625 -7 L 6.890625 -5.5625 L 8.890625 -5.03125 L 9.5 -7.375 L 8.671875 -8.765625 L 4.21875 -9.9375 Z M 2.84375 -9.15625 "/></g></g></g><g fill="#001d3d" fill-opacity="1"><g transform="translate(113.368121, 30.402597)"><g/></g></g><g fill="#001d3d" fill-opacity="1"><g transform="translate(122.759683, 35.568538)"><g><path d="M -0.875 1.8125 L 2.234375 4.265625 L 3.515625 2.640625 L 2.78125 2.0625 L 5.140625 -0.9375 L 7.15625 0.65625 L 8.421875 -0.953125 L 6.40625 -2.546875 L 8.046875 -4.625 L 10.0625 -3.03125 L 8.984375 -1.65625 L 10.625 -0.375 L 12.984375 -3.359375 L 6.953125 -8.109375 L 5.671875 -6.5 L 6.40625 -5.921875 L 1.140625 0.765625 L 0.40625 0.1875 Z M -0.875 1.8125 "/></g></g></g><g fill="#001d3d" fill-opacity="1"><g transform="translate(134.244331, 45.852031)"><g><path d="M 0.640625 0.609375 L -0.953125 1.9375 L 0.359375 3.515625 L 1.953125 2.1875 Z M 0.640625 0.609375 "/></g></g></g><g fill="#001d3d" fill-opacity="1"><g transform="translate(140.718424, 54.420642)"><g><path d="M 8.46875 -4.046875 L -0.4375 0.734375 L -0.921875 2.453125 L 1.140625 6.296875 L 2.640625 6.71875 L 5.078125 5.40625 L 4.09375 3.578125 L 2.5 4.4375 L 1.28125 2.15625 L 8.78125 -1.875 L 10 0.40625 L 8.421875 1.25 L 9.40625 3.078125 L 11.703125 1.84375 L 12.21875 0.1875 L 10.21875 -3.515625 Z M 8.46875 -4.046875 "/></g></g></g><g clip-path="url(#879df4ac1e)"><path fill="#ffffff" d="M 115.804688 79.035156 L 119.949219 64.234375 L 113.226562 70.316406 L 98.816406 70.316406 L 98.816406 71.816406 L 90.871094 87.515625 L 90.871094 64.234375 L 113.226562 64.234375 L 120.757812 56.644531 L 110.132812 56.550781 L 108.929688 57.753906 L 66.070312 57.753906 L 64.867188 56.550781 L 54.242188 56.644531 L 61.773438 64.234375 L 84.132812 64.234375 L 84.132812 87.515625 L 76.1875 71.816406 L 76.1875 70.316406 L 61.773438 70.316406 L 55.050781 64.234375 L 59.199219 79.035156 L 61.78125 79.382812 L 61.78125 87.480469 L 58.765625 90.492188 L 61.78125 93.507812 L 61.78125 101.996094 L 57.261719 101.996094 L 68.257812 110.855469 L 68.257812 110.652344 L 68.515625 110.855469 L 68.515625 93.101562 L 71.128906 90.492188 L 68.515625 87.882812 L 68.515625 76.800781 L 71.191406 76.800781 L 84.132812 102.378906 L 84.132812 116.371094 L 80.164062 116.371094 L 87.5 123.671875 L 94.835938 116.371094 L 90.871094 116.371094 L 90.871094 102.378906 L 103.816406 76.800781 L 106.484375 76.800781 L 106.484375 87.882812 L 103.875 90.492188 L 106.484375 93.101562 L 106.484375 110.855469 L 106.742188 110.652344 L 106.742188 110.855469 L 117.738281 101.996094 L 113.222656 101.996094 L 113.222656 93.507812 L 116.238281 90.492188 L 113.222656 87.480469 L 113.222656 79.382812 Z M 115.804688 79.035156 " fill-opacity="1" fill-rule="nonzero"/></g><g clip-path="url(#9bea1fbdab)"><g clip-path="url(#4aa816e8d8)"><g clip-path="url(#1608b58fc6)"><path fill="#ffffff" d="M 120.417969 119.707031 C 120.0625 119.347656 119.484375 119.34375 119.125 119.699219 C 110.800781 127.929688 99.3125 132.78125 87.605469 133 C 75.902344 133.21875 64.238281 128.808594 55.613281 120.894531 C 55.238281 120.550781 54.660156 120.578125 54.320312 120.949219 C 53.976562 121.320312 54.003906 121.898438 54.375 122.242188 C 56.472656 124.167969 58.742188 125.890625 61.148438 127.402344 C 69.019531 132.351562 78.320312 135.003906 87.640625 134.828125 C 99.8125 134.601562 111.757812 129.558594 120.410156 121 C 120.769531 120.644531 120.773438 120.066406 120.417969 119.707031 Z M 120.417969 119.707031 " fill-opacity="1" fill-rule="nonzero"/></g></g></g><g fill="#ffc300" fill-opacity="1"><g transform="translate(40.730591, 142.525752)"><g><path d="M -0.03125 0.859375 L 0.296875 2.953125 L 4.046875 5.765625 L 5.890625 5.421875 L 9.703125 0.328125 L 6.796875 -1.859375 L 5.453125 -0.0625 L 6.53125 0.75 L 4.609375 3.3125 L 2.28125 1.578125 L 7.96875 -6 L 10.296875 -4.265625 L 9.078125 -2.640625 L 10.90625 -1.265625 L 12.734375 -3.703125 L 12.5625 -5.421875 L 8.765625 -8.265625 L 6.578125 -7.953125 Z M -0.03125 0.859375 "/></g></g></g><g fill="#ffc300" fill-opacity="1"><g transform="translate(53.901975, 151.280882)"><g><path d="M 0.921875 0.328125 L -0.078125 2.390625 L 1.984375 3.40625 L 2.984375 1.34375 Z M 0.921875 0.328125 "/></g></g></g><g fill="#ffc300" fill-opacity="1"><g transform="translate(64.615895, 156.061864)"><g><path d="M 0.5 0 L -0.0625 2.234375 L 4.21875 3.3125 L 4.78125 1.078125 L 3.59375 0.78125 L 4.0625 -0.0625 L 7.359375 0.75 L 7.40625 1.734375 L 6.296875 1.453125 L 5.734375 3.6875 L 10.109375 4.78125 L 10.671875 2.546875 L 9.5625 2.265625 L 9.359375 -9.890625 L 7.328125 -10.40625 L 1.421875 0.234375 Z M 7.328125 -5.984375 L 7.34375 -1.59375 L 5.171875 -2.125 Z M 7.328125 -5.984375 "/></g></g></g><g fill="#ffc300" fill-opacity="1"><g transform="translate(83.201914, 159.498483)"><g><path d="M 0.96875 -0.078125 L 0.890625 2.21875 L 3.1875 2.296875 L 3.265625 0 Z M 0.96875 -0.078125 "/></g></g></g><g fill="#ffc300" fill-opacity="1"><g transform="translate(95.038389, 159.604185)"><g><path d="M -1.84375 -11.734375 L -1.40625 -9.484375 L -0.375 -9.6875 L 1.484375 -0.40625 L 0.453125 -0.203125 L 0.890625 2.046875 L 5.21875 1.1875 L 4.78125 -1.0625 L 3.75 -0.859375 L 2.625 -6.453125 L 7.484375 0.828125 L 9.09375 -7.75 L 10.21875 -2.15625 L 9.1875 -1.9375 L 9.625 0.3125 L 13.953125 -0.5625 L 13.515625 -2.8125 L 12.46875 -2.59375 L 10.609375 -11.875 L 11.65625 -12.09375 L 11.21875 -14.34375 L 8.140625 -13.71875 L 6.453125 -4.5625 L 1.125 -12.328125 Z M -1.84375 -11.734375 "/></g></g></g><g fill="#ffc300" fill-opacity="1"><g transform="translate(116.073248, 153.939114)"><g><path d="M 0.828125 -0.5 L 1.78125 1.578125 L 3.875 0.625 L 2.921875 -1.453125 Z M 0.828125 -0.5 "/></g></g></g><g fill="#ffc300" fill-opacity="1"><g transform="translate(126.522618, 148.692999)"><g><path d="M -2.078125 -3.671875 L -0.71875 -1.8125 L 0.125 -2.4375 L 1.640625 -0.34375 L 3.75 -0.03125 L 7.328125 -2.640625 L 7.65625 -4.40625 L 1.46875 -12.921875 L 2.3125 -13.546875 L 0.96875 -15.390625 L -2.59375 -12.796875 L -1.25 -10.953125 L -0.40625 -11.5625 L 5.171875 -3.90625 L 3.046875 -2.359375 L 2 -3.796875 L 2.84375 -4.40625 L 1.484375 -6.265625 Z M -2.078125 -3.671875 "/></g></g></g></svg>