<svg xmlns="http://www.w3.org/2000/svg" xmlns:xlink="http://www.w3.org/1999/xlink" width="500" zoomAndPan="magnify" viewBox="0 0 375 374.999991" height="500" preserveAspectRatio="xMidYMid meet" version="1.0"><defs><g/><clipPath id="21c3e097a9"><path d="M 60.535156 60.789062 L 314.785156 60.789062 L 314.785156 314.289062 L 60.535156 314.289062 Z M 60.535156 60.789062 " clip-rule="nonzero"/></clipPath><clipPath id="32fae340cc"><path d="M 64.207031 64.621094 L 310 64.621094 L 310 310.621094 L 64.207031 310.621094 Z M 64.207031 64.621094 " clip-rule="nonzero"/></clipPath><clipPath id="74c942aff8"><path d="M 81.136719 191.550781 L 104.925781 191.550781 L 104.925781 223.800781 L 81.136719 223.800781 Z M 81.136719 191.550781 " clip-rule="nonzero"/></clipPath><clipPath id="0f7802f3a5"><path d="M 269.027344 191.550781 L 293.027344 191.550781 L 293.027344 223.800781 L 269.027344 223.800781 Z M 269.027344 191.550781 " clip-rule="nonzero"/></clipPath><clipPath id="71e5e59abf"><path d="M 139.148438 142.847656 L 235.898438 142.847656 L 235.898438 240.347656 L 139.148438 240.347656 Z M 139.148438 142.847656 " clip-rule="nonzero"/></clipPath><clipPath id="69d4a9c09e"><path d="M 139 234 L 236 234 L 236 257 L 139 257 Z M 139 234 " clip-rule="nonzero"/></clipPath><clipPath id="1f578753b5"><path d="M 167.328125 191.554688 L 236.535156 235.066406 L 206.996094 282.050781 L 137.789062 238.539062 Z M 167.328125 191.554688 " clip-rule="nonzero"/></clipPath><clipPath id="0dcbd16bac"><path d="M 167.328125 191.554688 L 236.535156 235.066406 L 206.996094 282.050781 L 137.789062 238.539062 Z M 167.328125 191.554688 " clip-rule="nonzero"/></clipPath></defs><g clip-path="url(#21c3e097a9)"><path fill="#ffc300" d="M 315.734375 188.46875 C 315.734375 190.558594 315.679688 192.644531 315.578125 194.726562 C 315.476562 196.8125 315.324219 198.894531 315.117188 200.96875 C 314.914062 203.046875 314.660156 205.117188 314.351562 207.179688 C 314.046875 209.246094 313.691406 211.300781 313.28125 213.347656 C 312.875 215.394531 312.417969 217.429688 311.910156 219.453125 C 311.402344 221.480469 310.847656 223.488281 310.242188 225.488281 C 309.636719 227.484375 308.980469 229.464844 308.277344 231.429688 C 307.574219 233.394531 306.824219 235.339844 306.027344 237.269531 C 305.226562 239.199219 304.382812 241.105469 303.488281 242.992188 C 302.597656 244.878906 301.660156 246.742188 300.675781 248.582031 C 299.691406 250.421875 298.664062 252.238281 297.589844 254.027344 C 296.519531 255.816406 295.402344 257.582031 294.242188 259.316406 C 293.082031 261.050781 291.882812 262.757812 290.636719 264.433594 C 289.394531 266.109375 288.113281 267.753906 286.789062 269.367188 C 285.464844 270.980469 284.101562 272.558594 282.699219 274.105469 C 281.296875 275.652344 279.859375 277.164062 278.382812 278.640625 C 276.90625 280.113281 275.398438 281.554688 273.851562 282.953125 C 272.304688 284.355469 270.726562 285.71875 269.113281 287.042969 C 267.5 288.367188 265.855469 289.648438 264.175781 290.894531 C 262.5 292.136719 260.796875 293.335938 259.058594 294.496094 C 257.324219 295.65625 255.5625 296.773438 253.773438 297.84375 C 251.984375 298.917969 250.167969 299.945312 248.328125 300.929688 C 246.488281 301.914062 244.621094 302.851562 242.734375 303.746094 C 240.851562 304.636719 238.941406 305.484375 237.015625 306.28125 C 235.085938 307.078125 233.140625 307.832031 231.175781 308.535156 C 229.210938 309.238281 227.230469 309.890625 225.230469 310.496094 C 223.234375 311.101562 221.222656 311.660156 219.199219 312.167969 C 217.175781 312.671875 215.140625 313.128906 213.09375 313.539062 C 211.046875 313.945312 208.992188 314.300781 206.925781 314.609375 C 204.863281 314.914062 202.792969 315.167969 200.714844 315.375 C 198.636719 315.578125 196.558594 315.730469 194.472656 315.835938 C 192.386719 315.9375 190.300781 315.988281 188.214844 315.988281 C 186.128906 315.988281 184.042969 315.9375 181.957031 315.835938 C 179.875 315.730469 177.792969 315.578125 175.71875 315.375 C 173.640625 315.167969 171.570312 314.914062 169.503906 314.609375 C 167.441406 314.300781 165.386719 313.945312 163.339844 313.539062 C 161.292969 313.128906 159.257812 312.671875 157.230469 312.167969 C 155.207031 311.660156 153.195312 311.101562 151.199219 310.496094 C 149.203125 309.890625 147.222656 309.238281 145.257812 308.535156 C 143.292969 307.832031 141.34375 307.078125 139.417969 306.28125 C 137.488281 305.484375 135.582031 304.636719 133.695312 303.746094 C 131.808594 302.851562 129.945312 301.914062 128.105469 300.929688 C 126.265625 299.945312 124.449219 298.917969 122.660156 297.847656 C 120.867188 296.773438 119.105469 295.65625 117.371094 294.496094 C 115.636719 293.335938 113.929688 292.136719 112.253906 290.894531 C 110.578125 289.648438 108.933594 288.367188 107.320312 287.042969 C 105.707031 285.71875 104.125 284.355469 102.582031 282.953125 C 101.035156 281.554688 99.523438 280.113281 98.046875 278.640625 C 96.570312 277.164062 95.132812 275.652344 93.730469 274.105469 C 92.332031 272.558594 90.96875 270.980469 89.644531 269.367188 C 88.320312 267.753906 87.035156 266.109375 85.792969 264.433594 C 84.550781 262.757812 83.347656 261.050781 82.1875 259.316406 C 81.03125 257.582031 79.914062 255.816406 78.839844 254.027344 C 77.769531 252.238281 76.738281 250.421875 75.753906 248.582031 C 74.773438 246.742188 73.832031 244.878906 72.941406 242.992188 C 72.050781 241.105469 71.203125 239.199219 70.40625 237.269531 C 69.605469 235.339844 68.855469 233.394531 68.152344 231.429688 C 67.449219 229.464844 66.796875 227.484375 66.191406 225.488281 C 65.582031 223.488281 65.027344 221.480469 64.519531 219.453125 C 64.011719 217.429688 63.554688 215.394531 63.148438 213.347656 C 62.742188 211.300781 62.386719 209.246094 62.078125 207.179688 C 61.773438 205.117188 61.515625 203.046875 61.3125 200.96875 C 61.109375 198.894531 60.953125 196.8125 60.851562 194.726562 C 60.75 192.644531 60.699219 190.558594 60.699219 188.46875 C 60.699219 186.382812 60.75 184.296875 60.851562 182.214844 C 60.953125 180.128906 61.109375 178.046875 61.3125 175.972656 C 61.515625 173.894531 61.773438 171.824219 62.078125 169.761719 C 62.386719 167.695312 62.742188 165.640625 63.148438 163.59375 C 63.554688 161.546875 64.011719 159.511719 64.519531 157.488281 C 65.027344 155.460938 65.582031 153.453125 66.191406 151.453125 C 66.796875 149.457031 67.449219 147.476562 68.152344 145.511719 C 68.855469 143.546875 69.605469 141.601562 70.40625 139.671875 C 71.203125 137.742188 72.050781 135.835938 72.941406 133.949219 C 73.832031 132.0625 74.773438 130.199219 75.753906 128.359375 C 76.738281 126.519531 77.769531 124.703125 78.839844 122.914062 C 79.914062 121.125 81.03125 119.359375 82.1875 117.625 C 83.347656 115.890625 84.550781 114.183594 85.792969 112.507812 C 87.035156 110.832031 88.320312 109.1875 89.644531 107.574219 C 90.96875 105.960938 92.332031 104.382812 93.730469 102.835938 C 95.132812 101.289062 96.570312 99.777344 98.046875 98.300781 C 99.523438 96.828125 101.035156 95.386719 102.582031 93.988281 C 104.125 92.585938 105.707031 91.222656 107.320312 89.898438 C 108.933594 88.574219 110.578125 87.292969 112.253906 86.046875 C 113.929688 84.804688 115.636719 83.605469 117.371094 82.445312 C 119.105469 81.285156 120.867188 80.167969 122.660156 79.09375 C 124.449219 78.023438 126.265625 76.996094 128.105469 76.011719 C 129.945312 75.027344 131.808594 74.089844 133.695312 73.195312 C 135.582031 72.304688 137.488281 71.457031 139.417969 70.660156 C 141.34375 69.863281 143.292969 69.109375 145.257812 68.40625 C 147.222656 67.703125 149.203125 67.050781 151.199219 66.445312 C 153.195312 65.839844 155.207031 65.28125 157.230469 64.773438 C 159.257812 64.269531 161.292969 63.8125 163.339844 63.402344 C 165.386719 62.996094 167.441406 62.640625 169.503906 62.332031 C 171.570312 62.027344 173.640625 61.773438 175.71875 61.566406 C 177.792969 61.363281 179.875 61.210938 181.957031 61.105469 C 184.042969 61.003906 186.128906 60.953125 188.214844 60.953125 C 190.300781 60.953125 192.386719 61.003906 194.472656 61.105469 C 196.558594 61.210938 198.636719 61.363281 200.714844 61.566406 C 202.792969 61.773438 204.863281 62.027344 206.925781 62.332031 C 208.992188 62.640625 211.046875 62.996094 213.09375 63.402344 C 215.140625 63.8125 217.175781 64.269531 219.199219 64.773438 C 221.222656 65.28125 223.234375 65.839844 225.230469 66.445312 C 227.230469 67.050781 229.210938 67.703125 231.175781 68.40625 C 233.140625 69.109375 235.085938 69.863281 237.015625 70.660156 C 238.941406 71.457031 240.851562 72.304688 242.734375 73.195312 C 244.621094 74.089844 246.484375 75.027344 248.328125 76.011719 C 250.167969 76.996094 251.984375 78.023438 253.773438 79.09375 C 255.5625 80.167969 257.324219 81.285156 259.058594 82.445312 C 260.796875 83.605469 262.5 84.804688 264.175781 86.046875 C 265.855469 87.292969 267.5 88.574219 269.113281 89.898438 C 270.726562 91.222656 272.304688 92.585938 273.851562 93.988281 C 275.398438 95.386719 276.90625 96.828125 278.382812 98.300781 C 279.859375 99.777344 281.296875 101.289062 282.699219 102.835938 C 284.101562 104.382812 285.464844 105.960938 286.789062 107.574219 C 288.113281 109.1875 289.394531 110.832031 290.636719 112.507812 C 291.882812 114.183594 293.082031 115.890625 294.242188 117.625 C 295.402344 119.359375 296.519531 121.125 297.589844 122.914062 C 298.664062 124.703125 299.691406 126.519531 300.675781 128.359375 C 301.660156 130.199219 302.597656 132.0625 303.488281 133.949219 C 304.382812 135.835938 305.226562 137.742188 306.027344 139.671875 C 306.824219 141.601562 307.574219 143.546875 308.277344 145.511719 C 308.980469 147.476562 309.636719 149.457031 310.242188 151.453125 C 310.847656 153.453125 311.402344 155.460938 311.910156 157.488281 C 312.417969 159.511719 312.875 161.546875 313.28125 163.59375 C 313.691406 165.640625 314.046875 167.695312 314.351562 169.761719 C 314.660156 171.824219 314.914062 173.894531 315.117188 175.972656 C 315.324219 178.046875 315.476562 180.128906 315.578125 182.214844 C 315.679688 184.296875 315.734375 186.382812 315.734375 188.46875 Z M 315.734375 188.46875 " fill-opacity="1" fill-rule="nonzero"/></g><path fill="#ffc300" d="M 253.753906 128.640625 L 170.3125 212.078125 L 122.679688 164.441406 L 104.570312 182.554688 L 170.3125 248.300781 L 271.863281 146.75 Z M 253.753906 128.640625 " fill-opacity="1" fill-rule="nonzero"/><g clip-path="url(#32fae340cc)"><path fill="#ffffff" d="M 309.960938 187.496094 C 309.960938 189.507812 309.910156 191.515625 309.8125 193.527344 C 309.714844 195.535156 309.566406 197.539062 309.367188 199.539062 C 309.171875 201.542969 308.925781 203.535156 308.628906 205.527344 C 308.335938 207.515625 307.992188 209.496094 307.597656 211.46875 C 307.207031 213.441406 306.765625 215.402344 306.277344 217.351562 C 305.789062 219.304688 305.253906 221.242188 304.667969 223.164062 C 304.085938 225.089844 303.453125 227 302.777344 228.890625 C 302.097656 230.785156 301.375 232.660156 300.605469 234.519531 C 299.835938 236.378906 299.023438 238.214844 298.164062 240.03125 C 297.300781 241.851562 296.398438 243.648438 295.449219 245.421875 C 294.503906 247.195312 293.511719 248.941406 292.476562 250.667969 C 291.445312 252.390625 290.367188 254.089844 289.25 255.761719 C 288.132812 257.433594 286.976562 259.078125 285.777344 260.695312 C 284.582031 262.308594 283.34375 263.894531 282.066406 265.449219 C 280.792969 267.003906 279.480469 268.527344 278.128906 270.015625 C 276.777344 271.503906 275.390625 272.960938 273.96875 274.382812 C 272.546875 275.804688 271.09375 277.191406 269.601562 278.542969 C 268.113281 279.894531 266.589844 281.207031 265.035156 282.480469 C 263.480469 283.757812 261.894531 284.992188 260.28125 286.191406 C 258.664062 287.390625 257.023438 288.546875 255.351562 289.664062 C 253.675781 290.78125 251.980469 291.859375 250.253906 292.890625 C 248.53125 293.925781 246.78125 294.917969 245.007812 295.863281 C 243.234375 296.8125 241.4375 297.714844 239.621094 298.574219 C 237.800781 299.433594 235.964844 300.25 234.105469 301.019531 C 232.246094 301.789062 230.371094 302.511719 228.480469 303.191406 C 226.585938 303.867188 224.675781 304.5 222.753906 305.082031 C 220.828125 305.664062 218.890625 306.203125 216.941406 306.691406 C 214.988281 307.179688 213.027344 307.621094 211.054688 308.011719 C 209.082031 308.40625 207.101562 308.75 205.113281 309.042969 C 203.125 309.339844 201.128906 309.585938 199.128906 309.78125 C 197.125 309.980469 195.121094 310.125 193.113281 310.226562 C 191.105469 310.324219 189.09375 310.375 187.082031 310.375 C 185.070312 310.375 183.0625 310.324219 181.054688 310.226562 C 179.046875 310.125 177.039062 309.980469 175.039062 309.78125 C 173.039062 309.585938 171.042969 309.339844 169.054688 309.042969 C 167.0625 308.75 165.082031 308.40625 163.109375 308.011719 C 161.136719 307.621094 159.175781 307.179688 157.226562 306.691406 C 155.277344 306.203125 153.339844 305.664062 151.414062 305.082031 C 149.488281 304.5 147.582031 303.867188 145.6875 303.191406 C 143.792969 302.511719 141.917969 301.789062 140.058594 301.019531 C 138.203125 300.25 136.363281 299.433594 134.546875 298.574219 C 132.726562 297.714844 130.933594 296.8125 129.160156 295.863281 C 127.386719 294.917969 125.636719 293.925781 123.910156 292.890625 C 122.1875 291.859375 120.488281 290.78125 118.816406 289.664062 C 117.144531 288.546875 115.5 287.390625 113.886719 286.191406 C 112.269531 284.992188 110.683594 283.757812 109.128906 282.480469 C 107.574219 281.207031 106.054688 279.894531 104.5625 278.542969 C 103.074219 277.191406 101.617188 275.804688 100.195312 274.382812 C 98.773438 272.960938 97.386719 271.503906 96.035156 270.015625 C 94.6875 268.527344 93.375 267.003906 92.097656 265.449219 C 90.820312 263.894531 89.585938 262.308594 88.386719 260.695312 C 87.1875 259.078125 86.03125 257.433594 84.914062 255.761719 C 83.796875 254.089844 82.722656 252.390625 81.6875 250.667969 C 80.652344 248.941406 79.664062 247.195312 78.714844 245.421875 C 77.765625 243.648438 76.863281 241.851562 76.003906 240.03125 C 75.144531 238.214844 74.328125 236.378906 73.558594 234.519531 C 72.789062 232.660156 72.066406 230.785156 71.390625 228.890625 C 70.710938 227 70.082031 225.089844 69.496094 223.164062 C 68.914062 221.242188 68.378906 219.304688 67.886719 217.351562 C 67.398438 215.402344 66.960938 213.441406 66.566406 211.46875 C 66.175781 209.496094 65.832031 207.515625 65.535156 205.527344 C 65.242188 203.535156 64.996094 201.542969 64.796875 199.539062 C 64.601562 197.539062 64.453125 195.535156 64.355469 193.527344 C 64.253906 191.515625 64.207031 189.507812 64.207031 187.496094 C 64.207031 185.484375 64.253906 183.476562 64.355469 181.46875 C 64.453125 179.457031 64.601562 177.453125 64.796875 175.453125 C 64.996094 173.449219 65.242188 171.457031 65.535156 169.464844 C 65.832031 167.476562 66.175781 165.496094 66.566406 163.523438 C 66.960938 161.550781 67.398438 159.589844 67.886719 157.640625 C 68.378906 155.6875 68.914062 153.75 69.496094 151.828125 C 70.082031 149.902344 70.710938 147.992188 71.390625 146.101562 C 72.066406 144.207031 72.789062 142.332031 73.558594 140.472656 C 74.328125 138.617188 75.144531 136.777344 76.003906 134.960938 C 76.863281 133.140625 77.765625 131.347656 78.714844 129.574219 C 79.664062 127.800781 80.652344 126.050781 81.6875 124.324219 C 82.722656 122.601562 83.796875 120.902344 84.914062 119.230469 C 86.03125 117.558594 87.1875 115.914062 88.386719 114.296875 C 89.585938 112.683594 90.820312 111.097656 92.097656 109.542969 C 93.375 107.988281 94.6875 106.46875 96.035156 104.976562 C 97.386719 103.488281 98.773438 102.03125 100.195312 100.609375 C 101.617188 99.1875 103.074219 97.800781 104.5625 96.449219 C 106.054688 95.101562 107.574219 93.785156 109.128906 92.511719 C 110.683594 91.234375 112.269531 90 113.886719 88.800781 C 115.5 87.601562 117.144531 86.445312 118.816406 85.328125 C 120.488281 84.210938 122.1875 83.136719 123.910156 82.101562 C 125.636719 81.066406 127.386719 80.078125 129.160156 79.128906 C 130.933594 78.179688 132.726562 77.277344 134.546875 76.417969 C 136.363281 75.558594 138.203125 74.742188 140.058594 73.972656 C 141.917969 73.203125 143.792969 72.480469 145.6875 71.800781 C 147.582031 71.125 149.488281 70.496094 151.414062 69.910156 C 153.339844 69.328125 155.277344 68.789062 157.226562 68.300781 C 159.175781 67.8125 161.136719 67.371094 163.109375 66.980469 C 165.082031 66.589844 167.0625 66.246094 169.054688 65.949219 C 171.042969 65.652344 173.039062 65.40625 175.039062 65.210938 C 177.039062 65.015625 179.046875 64.867188 181.054688 64.765625 C 183.0625 64.667969 185.070312 64.621094 187.082031 64.621094 C 189.09375 64.621094 191.105469 64.667969 193.113281 64.765625 C 195.121094 64.867188 197.125 65.015625 199.128906 65.210938 C 201.128906 65.40625 203.125 65.652344 205.113281 65.949219 C 207.101562 66.246094 209.082031 66.589844 211.054688 66.980469 C 213.027344 67.371094 214.988281 67.8125 216.941406 68.300781 C 218.890625 68.789062 220.828125 69.328125 222.753906 69.910156 C 224.675781 70.496094 226.585938 71.125 228.480469 71.800781 C 230.371094 72.480469 232.246094 73.203125 234.105469 73.972656 C 235.964844 74.742188 237.800781 75.558594 239.621094 76.417969 C 241.4375 77.277344 243.234375 78.179688 245.007812 79.128906 C 246.78125 80.078125 248.53125 81.066406 250.253906 82.101562 C 251.980469 83.136719 253.675781 84.210938 255.351562 85.328125 C 257.023438 86.445312 258.664062 87.601562 260.28125 88.800781 C 261.894531 90 263.480469 91.234375 265.035156 92.511719 C 266.589844 93.785156 268.113281 95.101562 269.601562 96.449219 C 271.09375 97.800781 272.546875 99.1875 273.96875 100.609375 C 275.390625 102.03125 276.777344 103.488281 278.128906 104.976562 C 279.480469 106.46875 280.792969 107.988281 282.066406 109.542969 C 283.34375 111.097656 284.582031 112.683594 285.777344 114.296875 C 286.976562 115.914062 288.132812 117.558594 289.25 119.230469 C 290.367188 120.902344 291.445312 122.601562 292.476562 124.324219 C 293.511719 126.050781 294.503906 127.800781 295.449219 129.574219 C 296.398438 131.347656 297.300781 133.140625 298.164062 134.960938 C 299.023438 136.777344 299.835938 138.617188 300.605469 140.472656 C 301.375 142.332031 302.097656 144.207031 302.777344 146.101562 C 303.453125 147.992188 304.085938 149.902344 304.667969 151.828125 C 305.253906 153.75 305.789062 155.6875 306.277344 157.640625 C 306.765625 159.589844 307.207031 161.550781 307.597656 163.523438 C 307.992188 165.496094 308.335938 167.476562 308.628906 169.464844 C 308.925781 171.457031 309.171875 173.449219 309.367188 175.453125 C 309.566406 177.453125 309.714844 179.457031 309.8125 181.46875 C 309.910156 183.476562 309.960938 185.484375 309.960938 187.496094 Z M 309.960938 187.496094 " fill-opacity="1" fill-rule="nonzero"/></g><path fill="#001d3d" d="M 238.167969 226.757812 C 242.242188 228.613281 246.3125 230.46875 250.382812 232.320312 C 259.152344 236.324219 267.921875 240.335938 276.683594 244.347656 C 282.113281 246.839844 283.644531 252.726562 280.015625 257.441406 C 261.460938 281.527344 237.339844 296.785156 207.351562 302.015625 C 174.25 307.789062 144.039062 300.371094 116.976562 280.4375 C 108.15625 273.898438 100.472656 266.21875 93.925781 257.398438 C 90.410156 252.699219 91.878906 246.839844 97.234375 244.382812 C 109.054688 238.964844 120.882812 233.566406 132.722656 228.1875 C 133.464844 227.914062 134.152344 227.535156 134.78125 227.058594 C 134.480469 226.992188 134.195312 227.027344 133.917969 227.152344 C 118.910156 232.445312 103.902344 237.730469 88.890625 243.003906 C 86.277344 243.921875 84.730469 243.304688 83.46875 240.847656 C 76.5 227.289062 72.097656 212.945312 70.980469 197.726562 C 68.175781 159.519531 80.710938 127.132812 108.820312 101.101562 C 125.535156 85.625 145.449219 76.175781 167.980469 72.664062 C 200.710938 67.5625 230.65625 74.703125 257.105469 94.675781 C 282.625 113.953125 297.769531 139.75 302.355469 171.433594 C 305.871094 195.71875 301.699219 218.855469 290.582031 240.730469 C 289.253906 243.339844 287.753906 243.933594 284.972656 242.960938 C 271.855469 238.371094 258.75 233.746094 245.617188 229.207031 C 243.152344 228.355469 240.773438 227.242188 238.167969 226.757812 Z M 76.121094 187.460938 C 76.113281 195.425781 76.960938 203.300781 78.660156 211.085938 C 80.359375 218.867188 82.875 226.378906 86.203125 233.617188 C 87.703125 236.886719 87.714844 236.890625 91.144531 235.800781 C 98.402344 233.492188 105.660156 231.175781 112.914062 228.855469 C 114.671875 228.289062 115.078125 227.304688 114.277344 225.683594 C 114.15625 225.445312 114.019531 225.210938 113.90625 224.96875 C 100.3125 196.753906 101.460938 169.144531 118.40625 142.800781 C 119.113281 141.710938 119.847656 140.632812 120.605469 139.574219 C 121.367188 138.519531 122.148438 137.476562 122.957031 136.457031 C 123.769531 135.4375 124.601562 134.4375 125.457031 133.453125 C 126.3125 132.472656 127.191406 131.511719 128.09375 130.574219 C 128.996094 129.636719 129.921875 128.71875 130.867188 127.824219 C 131.8125 126.925781 132.78125 126.054688 133.769531 125.207031 C 134.757812 124.355469 135.761719 123.53125 136.789062 122.730469 C 137.816406 121.929688 138.863281 121.152344 139.925781 120.402344 C 140.992188 119.652344 142.070312 118.925781 143.171875 118.226562 C 144.269531 117.527344 145.382812 116.851562 146.515625 116.207031 C 147.644531 115.558594 148.789062 114.941406 149.949219 114.347656 C 151.109375 113.757812 152.285156 113.191406 153.46875 112.65625 C 154.65625 112.121094 155.855469 111.613281 157.066406 111.132812 C 158.277344 110.65625 159.5 110.203125 160.734375 109.785156 C 161.964844 109.363281 163.207031 108.972656 164.457031 108.609375 C 165.710938 108.25 166.96875 107.917969 168.234375 107.617188 C 169.503906 107.316406 170.777344 107.042969 172.058594 106.800781 C 173.335938 106.5625 174.621094 106.351562 175.910156 106.171875 C 177.203125 105.992188 178.496094 105.84375 179.792969 105.726562 C 181.089844 105.605469 182.386719 105.519531 183.691406 105.464844 C 184.992188 105.410156 186.292969 105.382812 187.59375 105.390625 C 188.898438 105.394531 190.199219 105.433594 191.5 105.5 C 192.800781 105.566406 194.097656 105.667969 195.394531 105.796875 C 196.691406 105.925781 197.984375 106.085938 199.269531 106.277344 C 200.558594 106.46875 201.84375 106.691406 203.121094 106.945312 C 204.398438 107.199219 205.667969 107.480469 206.933594 107.792969 C 208.195312 108.105469 209.453125 108.449219 210.699219 108.824219 C 211.949219 109.195312 213.1875 109.597656 214.414062 110.03125 C 215.644531 110.460938 216.863281 110.921875 218.070312 111.414062 C 219.277344 111.902344 220.46875 112.421875 221.652344 112.96875 C 222.832031 113.515625 224.003906 114.089844 225.15625 114.695312 C 226.3125 115.296875 227.449219 115.925781 228.574219 116.582031 C 229.699219 117.238281 230.808594 117.921875 231.902344 118.632812 C 232.992188 119.34375 234.066406 120.078125 235.125 120.839844 C 236.179688 121.601562 237.21875 122.386719 238.238281 123.195312 C 239.257812 124.007812 240.257812 124.839844 241.238281 125.699219 C 242.21875 126.558594 243.175781 127.4375 244.113281 128.34375 C 245.050781 129.246094 245.96875 130.171875 246.859375 131.117188 C 247.753906 132.066406 248.625 133.035156 249.472656 134.023438 C 250.320312 135.011719 251.144531 136.019531 251.945312 137.050781 C 252.742188 138.078125 253.519531 139.125 254.265625 140.1875 C 255.015625 141.253906 255.742188 142.335938 256.4375 143.4375 C 257.136719 144.535156 257.808594 145.652344 258.453125 146.78125 C 259.097656 147.914062 259.714844 149.0625 260.304688 150.222656 C 260.894531 151.382812 261.457031 152.558594 261.992188 153.746094 C 262.527344 154.933594 263.03125 156.132812 263.507812 157.34375 C 263.988281 158.554688 264.433594 159.777344 264.851562 161.011719 C 265.273438 162.246094 265.660156 163.488281 266.019531 164.738281 C 266.378906 165.992188 266.710938 167.25 267.011719 168.519531 C 267.308594 169.785156 267.578125 171.058594 267.816406 172.339844 C 268.054688 173.621094 268.265625 174.90625 268.441406 176.195312 C 268.621094 177.488281 268.765625 178.78125 268.882812 180.078125 C 269 181.375 269.082031 182.675781 269.136719 183.976562 C 269.191406 185.277344 269.214844 186.578125 269.207031 187.882812 C 269.199219 189.183594 269.160156 190.484375 269.089844 191.785156 C 269.019531 193.085938 268.917969 194.382812 268.785156 195.679688 C 268.65625 196.976562 268.492188 198.265625 268.300781 199.554688 C 268.105469 200.84375 267.882812 202.125 267.625 203.402344 C 267.371094 204.679688 267.085938 205.949219 266.773438 207.214844 C 266.457031 208.476562 266.113281 209.734375 265.738281 210.980469 C 265.363281 212.230469 264.957031 213.464844 264.523438 214.695312 C 264.089844 215.921875 263.628906 217.140625 263.136719 218.34375 C 262.644531 219.550781 262.121094 220.746094 261.574219 221.925781 C 261.023438 223.105469 260.449219 224.273438 259.84375 225.429688 C 258.847656 227.363281 259.21875 228.28125 261.296875 228.945312 C 268.726562 231.320312 276.152344 233.6875 283.582031 236.046875 C 285.972656 236.808594 286.390625 236.632812 287.4375 234.371094 C 297.625 212.28125 300.460938 189.253906 295.617188 165.4375 C 283.320312 105.019531 223.84375 66.246094 163.582031 79.203125 C 112.863281 90.105469 76.128906 135.570312 76.121094 187.460938 Z M 225.355469 217.480469 C 233.917969 220.203125 242.484375 222.925781 251.050781 225.648438 C 253.042969 226.28125 253.527344 226.101562 254.511719 224.285156 C 262.71875 209.101562 265.667969 192.9375 263.046875 175.890625 C 262.730469 173.816406 262.332031 171.761719 261.84375 169.71875 C 261.359375 167.679688 260.792969 165.664062 260.140625 163.671875 C 259.492188 161.675781 258.761719 159.710938 257.949219 157.777344 C 257.136719 155.84375 256.25 153.949219 255.285156 152.085938 C 254.316406 150.226562 253.277344 148.40625 252.160156 146.632812 C 251.046875 144.855469 249.859375 143.128906 248.601562 141.449219 C 247.347656 139.769531 246.023438 138.148438 244.632812 136.574219 C 243.242188 135.003906 241.792969 133.496094 240.277344 132.042969 C 238.765625 130.589844 237.195312 129.203125 235.570312 127.882812 C 233.941406 126.558594 232.261719 125.304688 230.535156 124.117188 C 228.804688 122.933594 227.03125 121.820312 225.207031 120.777344 C 223.386719 119.738281 221.527344 118.773438 219.628906 117.886719 C 217.730469 116.996094 215.796875 116.1875 213.828125 115.457031 C 211.863281 114.730469 209.871094 114.082031 207.851562 113.515625 C 205.835938 112.945312 203.796875 112.464844 201.738281 112.0625 C 199.679688 111.664062 197.605469 111.347656 195.523438 111.117188 C 177.921875 109.183594 161.507812 112.839844 146.496094 122.21875 C 111.660156 143.976562 99.855469 188.597656 119.414062 224.1875 C 120.472656 226.109375 120.90625 226.292969 122.953125 225.644531 C 131.191406 223.023438 139.429688 220.402344 147.667969 217.773438 C 147.933594 217.691406 148.289062 217.710938 148.40625 217.304688 C 147.46875 217.1875 146.539062 217.210938 145.609375 217.371094 C 138.921875 218.070312 132.230469 218.75 125.542969 219.46875 C 124.238281 219.609375 123.464844 219.148438 122.902344 217.945312 C 116.253906 203.707031 114.257812 188.855469 117.457031 173.472656 C 125.636719 134.148438 163.804688 109.648438 202.988281 118.414062 C 246.847656 128.226562 270.628906 177.390625 251.117188 217.882812 C 250.519531 219.121094 249.742188 219.625 248.378906 219.46875 C 244.371094 219.007812 240.355469 218.589844 236.339844 218.207031 C 232.683594 217.859375 229.050781 217.285156 225.355469 217.480469 Z M 127.027344 239.941406 C 144.605469 261.992188 167.507812 271.675781 195.515625 269.128906 C 200.578125 268.640625 205.53125 267.625 210.375 266.082031 C 215.21875 264.535156 219.847656 262.496094 224.257812 259.960938 C 233.195312 254.929688 240.84375 248.421875 246.753906 239.933594 C 229.839844 255.546875 210.117188 264.308594 186.933594 264.300781 C 163.730469 264.292969 144.023438 255.417969 127.027344 239.941406 Z M 127.027344 239.941406 " fill-opacity="1" fill-rule="nonzero"/><path fill="#ffc300" d="M 76.121094 187.460938 C 76.128906 135.570312 112.863281 90.105469 163.582031 79.203125 C 223.84375 66.246094 283.320312 105.019531 295.617188 165.4375 C 300.460938 189.253906 297.625 212.28125 287.4375 234.371094 C 286.390625 236.632812 285.972656 236.808594 283.582031 236.046875 C 276.152344 233.683594 268.726562 231.316406 261.296875 228.945312 C 259.21875 228.28125 258.847656 227.363281 259.84375 225.429688 C 260.449219 224.273438 261.023438 223.105469 261.574219 221.925781 C 262.121094 220.746094 262.644531 219.550781 263.136719 218.34375 C 263.628906 217.140625 264.089844 215.921875 264.523438 214.695312 C 264.957031 213.464844 265.363281 212.230469 265.738281 210.980469 C 266.113281 209.734375 266.457031 208.476562 266.773438 207.214844 C 267.085938 205.949219 267.371094 204.679688 267.625 203.402344 C 267.882812 202.125 268.105469 200.84375 268.296875 199.554688 C 268.492188 198.265625 268.65625 196.976562 268.785156 195.679688 C 268.917969 194.382812 269.019531 193.085938 269.089844 191.785156 C 269.160156 190.484375 269.199219 189.183594 269.207031 187.882812 C 269.214844 186.578125 269.191406 185.277344 269.136719 183.976562 C 269.082031 182.675781 269 181.375 268.882812 180.078125 C 268.765625 178.78125 268.621094 177.488281 268.441406 176.195312 C 268.265625 174.90625 268.054688 173.621094 267.816406 172.339844 C 267.578125 171.058594 267.308594 169.785156 267.007812 168.519531 C 266.710938 167.25 266.378906 165.992188 266.019531 164.738281 C 265.660156 163.488281 265.273438 162.246094 264.851562 161.011719 C 264.433594 159.777344 263.988281 158.554688 263.507812 157.34375 C 263.03125 156.132812 262.527344 154.933594 261.992188 153.746094 C 261.457031 152.558594 260.894531 151.382812 260.304688 150.222656 C 259.714844 149.0625 259.097656 147.914062 258.453125 146.78125 C 257.808594 145.652344 257.136719 144.535156 256.4375 143.4375 C 255.742188 142.335938 255.015625 141.253906 254.265625 140.1875 C 253.519531 139.125 252.742188 138.078125 251.945312 137.050781 C 251.144531 136.019531 250.320312 135.011719 249.472656 134.023438 C 248.625 133.035156 247.753906 132.066406 246.859375 131.121094 C 245.96875 130.171875 245.050781 129.246094 244.113281 128.34375 C 243.175781 127.4375 242.21875 126.558594 241.238281 125.699219 C 240.257812 124.839844 239.257812 124.007812 238.238281 123.195312 C 237.21875 122.386719 236.179688 121.601562 235.125 120.839844 C 234.066406 120.078125 232.992188 119.34375 231.898438 118.632812 C 230.808594 117.921875 229.699219 117.238281 228.574219 116.582031 C 227.449219 115.925781 226.3125 115.296875 225.15625 114.695312 C 224.003906 114.089844 222.832031 113.515625 221.652344 112.96875 C 220.46875 112.421875 219.273438 111.902344 218.070312 111.414062 C 216.863281 110.921875 215.644531 110.460938 214.414062 110.03125 C 213.1875 109.597656 211.949219 109.195312 210.699219 108.824219 C 209.453125 108.449219 208.195312 108.105469 206.933594 107.792969 C 205.667969 107.480469 204.398438 107.199219 203.121094 106.945312 C 201.84375 106.691406 200.558594 106.46875 199.269531 106.277344 C 197.984375 106.085938 196.691406 105.925781 195.394531 105.796875 C 194.097656 105.667969 192.800781 105.566406 191.5 105.5 C 190.199219 105.433594 188.898438 105.394531 187.59375 105.390625 C 186.292969 105.382812 184.992188 105.410156 183.691406 105.464844 C 182.386719 105.519531 181.089844 105.609375 179.792969 105.726562 C 178.496094 105.84375 177.203125 105.992188 175.910156 106.171875 C 174.621094 106.351562 173.335938 106.5625 172.058594 106.800781 C 170.777344 107.042969 169.503906 107.316406 168.234375 107.617188 C 166.96875 107.917969 165.710938 108.25 164.457031 108.609375 C 163.207031 108.972656 161.964844 109.363281 160.734375 109.785156 C 159.5 110.203125 158.277344 110.65625 157.066406 111.132812 C 155.855469 111.613281 154.65625 112.121094 153.46875 112.65625 C 152.285156 113.191406 151.109375 113.757812 149.949219 114.347656 C 148.789062 114.941406 147.644531 115.558594 146.515625 116.207031 C 145.382812 116.851562 144.269531 117.527344 143.171875 118.226562 C 142.070312 118.925781 140.992188 119.652344 139.925781 120.402344 C 138.863281 121.152344 137.816406 121.929688 136.789062 122.730469 C 135.761719 123.53125 134.757812 124.355469 133.769531 125.207031 C 132.78125 126.054688 131.8125 126.925781 130.867188 127.824219 C 129.921875 128.71875 128.996094 129.636719 128.09375 130.574219 C 127.191406 131.511719 126.3125 132.472656 125.457031 133.453125 C 124.601562 134.4375 123.769531 135.4375 122.957031 136.457031 C 122.148438 137.476562 121.367188 138.519531 120.605469 139.574219 C 119.847656 140.632812 119.113281 141.710938 118.40625 142.800781 C 101.460938 169.144531 100.3125 196.753906 113.90625 224.96875 C 114.019531 225.210938 114.15625 225.445312 114.277344 225.683594 C 115.078125 227.304688 114.671875 228.289062 112.914062 228.855469 C 105.660156 231.179688 98.402344 233.496094 91.144531 235.800781 C 87.714844 236.890625 87.703125 236.886719 86.203125 233.617188 C 82.875 226.378906 80.359375 218.867188 78.660156 211.085938 C 76.960938 203.300781 76.113281 195.425781 76.121094 187.460938 Z M 76.121094 187.460938 " fill-opacity="1" fill-rule="nonzero"/><path fill="#ffc300" d="M 225.355469 217.480469 C 229.050781 217.285156 232.683594 217.859375 236.339844 218.207031 C 240.355469 218.585938 244.371094 219.007812 248.378906 219.46875 C 249.742188 219.625 250.519531 219.121094 251.117188 217.882812 C 270.628906 177.390625 246.847656 128.226562 202.988281 118.414062 C 163.804688 109.644531 125.636719 134.148438 117.457031 173.472656 C 114.257812 188.855469 116.253906 203.707031 122.902344 217.945312 C 123.464844 219.148438 124.238281 219.609375 125.542969 219.46875 C 132.230469 218.75 138.921875 218.070312 145.609375 217.371094 C 146.539062 217.210938 147.46875 217.1875 148.40625 217.304688 C 148.289062 217.710938 147.933594 217.691406 147.667969 217.773438 C 139.429688 220.402344 131.191406 223.027344 122.953125 225.644531 C 120.90625 226.292969 120.472656 226.109375 119.414062 224.1875 C 99.855469 188.597656 111.660156 143.972656 146.496094 122.21875 C 161.507812 112.839844 177.921875 109.183594 195.523438 111.117188 C 197.605469 111.347656 199.679688 111.664062 201.738281 112.0625 C 203.796875 112.464844 205.835938 112.945312 207.851562 113.511719 C 209.871094 114.082031 211.863281 114.730469 213.832031 115.457031 C 215.796875 116.1875 217.730469 116.996094 219.628906 117.886719 C 221.527344 118.773438 223.386719 119.738281 225.207031 120.777344 C 227.03125 121.820312 228.804688 122.933594 230.535156 124.117188 C 232.265625 125.304688 233.941406 126.558594 235.570312 127.882812 C 237.195312 129.203125 238.765625 130.589844 240.277344 132.042969 C 241.792969 133.496094 243.242188 135.003906 244.632812 136.574219 C 246.023438 138.148438 247.347656 139.769531 248.601562 141.449219 C 249.859375 143.128906 251.046875 144.855469 252.160156 146.632812 C 253.277344 148.40625 254.316406 150.226562 255.285156 152.085938 C 256.25 153.949219 257.136719 155.84375 257.949219 157.777344 C 258.761719 159.710938 259.492188 161.675781 260.140625 163.671875 C 260.792969 165.664062 261.359375 167.679688 261.84375 169.71875 C 262.332031 171.761719 262.730469 173.816406 263.046875 175.890625 C 265.667969 192.9375 262.71875 209.101562 254.511719 224.285156 C 253.527344 226.101562 253.042969 226.28125 251.050781 225.648438 C 242.484375 222.925781 233.917969 220.203125 225.355469 217.480469 Z M 225.355469 217.480469 " fill-opacity="1" fill-rule="nonzero"/><path fill="#ffc300" d="M 127.027344 239.941406 C 144.023438 255.417969 163.730469 264.292969 186.933594 264.300781 C 210.117188 264.308594 229.839844 255.546875 246.753906 239.933594 C 240.84375 248.421875 233.195312 254.929688 224.257812 259.960938 C 219.847656 262.496094 215.21875 264.535156 210.375 266.082031 C 205.53125 267.625 200.578125 268.640625 195.515625 269.128906 C 167.507812 271.675781 144.605469 261.992188 127.027344 239.941406 Z M 127.027344 239.941406 " fill-opacity="1" fill-rule="nonzero"/><g clip-path="url(#74c942aff8)"><path fill="#001d3d" d="M 80.925781 191.566406 L 98.632812 205.933594 L 94.296875 206.023438 L 100.890625 212.886719 L 97.003906 213.070312 L 105.136719 223.457031 L 87.339844 209.09375 L 91.765625 208.824219 L 84.71875 201.957031 L 88.695312 201.6875 Z M 80.925781 191.566406 " fill-opacity="1" fill-rule="nonzero"/></g><g clip-path="url(#0f7802f3a5)"><path fill="#001d3d" d="M 293.238281 191.566406 L 275.53125 205.933594 L 279.867188 206.023438 L 273.273438 212.886719 L 277.15625 213.070312 L 269.027344 223.457031 L 286.824219 209.09375 L 282.398438 208.824219 L 289.445312 201.957031 L 285.46875 201.6875 Z M 293.238281 191.566406 " fill-opacity="1" fill-rule="nonzero"/></g><g fill="#001d3d" fill-opacity="1"><g transform="translate(104.333885, 149.511242)"><g><path d="M -13.03125 -8.40625 L -10.4375 -6.890625 L -9.75 -8.0625 L 0.890625 -1.796875 L 0.203125 -0.625 L 2.78125 0.890625 L 5.6875 -4.0625 L 3.109375 -5.578125 L 2.40625 -4.390625 L -4 -8.15625 L 7.296875 -6.546875 L 0.375 -15.578125 L 6.78125 -11.8125 L 6.09375 -10.640625 L 8.671875 -9.125 L 11.578125 -14.0625 L 9 -15.578125 L 8.296875 -14.390625 L -2.34375 -20.65625 L -1.640625 -21.84375 L -4.234375 -23.359375 L -6.3125 -19.828125 L 1.15625 -10.25 L -11.046875 -11.796875 Z M -13.03125 -8.40625 "/></g></g></g><g fill="#001d3d" fill-opacity="1"><g transform="translate(120.041576, 126.098614)"><g><path d="M 0.375 -0.546875 L 2.40625 1.640625 L 6.609375 -2.265625 L 4.578125 -4.453125 L 3.421875 -3.375 L 2.8125 -4.484375 L 6.0625 -7.5 L 7.171875 -6.84375 L 6.078125 -5.84375 L 8.109375 -3.65625 L 12.421875 -7.65625 L 10.390625 -9.84375 L 9.296875 -8.828125 L -4.15625 -17.296875 L -6.15625 -15.4375 L 1.28125 -1.390625 Z M -1.296875 -12.265625 L 3.515625 -9.15625 L 1.375 -7.1875 Z M -1.296875 -12.265625 "/></g></g></g><g fill="#001d3d" fill-opacity="1"><g transform="translate(138.997702, 110.339767)"><g><path d="M 1.875 2.21875 L 6.96875 -0.4375 L 5.59375 -3.078125 L 4.375 -2.4375 L 1 -8.875 L 9.625 -1.828125 L 12.046875 -3.09375 L 4.953125 -16.6875 L 6.171875 -17.328125 L 4.78125 -19.984375 L -0.296875 -17.328125 L 1.09375 -14.671875 L 2.3125 -15.296875 L 5.828125 -8.546875 L -3 -15.90625 L -6.609375 -14.03125 L -5.21875 -11.375 L -4.015625 -12 L 1.703125 -1.046875 L 0.5 -0.421875 Z M 1.875 2.21875 "/></g></g></g><g fill="#001d3d" fill-opacity="1"><g transform="translate(160.713475, 100.455029)"><g><path d="M -1.328125 -8.875 L 1.5 -9.5 L 0.71875 -12.96875 L 2.53125 -13.390625 L 5.234375 -1.328125 L 3.890625 -1.015625 L 4.546875 1.90625 L 10.140625 0.640625 L 9.484375 -2.28125 L 8.140625 -1.96875 L 5.4375 -14.03125 L 7.25 -14.4375 L 8.03125 -10.96875 L 10.859375 -11.609375 L 9.421875 -18 L -2.765625 -15.265625 Z M -1.328125 -8.875 "/></g></g></g><g fill="#001d3d" fill-opacity="1"><g transform="translate(183.971129, 96.638593)"><g><path d="M 0.625 0.875 L 2.40625 2.90625 L 8.359375 3.046875 L 10.375 1.109375 L 10.71875 -13.265625 L 8.84375 -15.296875 L 2.953125 -15.4375 L 0.96875 -13.5 Z M 7.6875 -12.328125 L 7.390625 0.03125 L 3.625 -0.046875 L 3.921875 -12.40625 Z M 7.6875 -12.328125 "/></g></g></g><g fill="#001d3d" fill-opacity="1"><g transform="translate(204.810798, 98.268211)"><g><path d="M 4.140625 -13.28125 L 2.359375 -6.484375 L 3.5625 -4.390625 L 8.6875 -3.046875 L 7.421875 1.796875 L 3.53125 0.78125 L 4.09375 -1.359375 L 1.21875 -2.125 L 0.40625 1.015625 L 1.828125 3.40625 L 7.4375 4.875 L 10.140625 3.265625 L 11.90625 -3.5 L 10.671875 -5.609375 L 5.546875 -6.9375 L 6.65625 -11.171875 L 10.546875 -10.15625 L 10 -8.0625 L 12.90625 -7.3125 L 13.796875 -10.703125 L 12.578125 -12.734375 L 6.109375 -14.421875 Z M 4.140625 -13.28125 "/></g></g></g><g fill="#001d3d" fill-opacity="1"><g transform="translate(225.034255, 104.904176)"><g/></g></g><g fill="#001d3d" fill-opacity="1"><g transform="translate(238.661655, 112.400091)"><g><path d="M -1.265625 2.625 L 3.234375 6.1875 L 5.09375 3.84375 L 4.015625 2.984375 L 7.453125 -1.390625 L 10.421875 0.9375 L 12.25 -1.375 L 9.28125 -3.703125 L 11.65625 -6.71875 L 14.625 -4.390625 L 13.046875 -2.375 L 15.390625 -0.515625 L 18.828125 -4.890625 L 10.09375 -11.78125 L 8.234375 -9.421875 L 9.3125 -8.578125 L 1.671875 1.125 L 0.59375 0.28125 Z M -1.265625 2.625 "/></g></g></g><g fill="#001d3d" fill-opacity="1"><g transform="translate(255.326148, 127.321651)"><g><path d="M 0.921875 0.875 L -1.375 2.78125 L 0.546875 5.09375 L 2.84375 3.1875 Z M 0.921875 0.875 "/></g></g></g><g fill="#001d3d" fill-opacity="1"><g transform="translate(264.720228, 139.754954)"><g><path d="M 12.28125 -5.859375 L -0.609375 1.046875 L -1.328125 3.53125 L 1.671875 9.125 L 3.828125 9.734375 L 7.359375 7.84375 L 5.953125 5.203125 L 3.625 6.453125 L 1.84375 3.125 L 12.734375 -2.71875 L 14.515625 0.609375 L 12.234375 1.828125 L 13.640625 4.46875 L 16.984375 2.671875 L 17.734375 0.265625 L 14.84375 -5.109375 Z M 12.28125 -5.859375 "/></g></g></g><g clip-path="url(#71e5e59abf)"><path fill="#ffffff" d="M 228.566406 175.476562 L 234.585938 153.996094 L 224.828125 162.820312 L 203.917969 162.820312 L 203.917969 164.996094 L 192.386719 187.785156 L 192.386719 153.996094 L 224.828125 153.996094 L 235.761719 142.980469 L 220.339844 142.847656 L 218.59375 144.59375 L 156.394531 144.59375 L 154.652344 142.847656 L 139.230469 142.980469 L 150.164062 153.996094 L 182.609375 153.996094 L 182.609375 187.785156 L 171.082031 164.996094 L 171.082031 162.820312 L 150.164062 162.820312 L 140.40625 153.996094 L 146.421875 175.476562 L 150.167969 175.976562 L 150.167969 187.730469 L 145.796875 192.101562 L 150.167969 196.476562 L 150.167969 208.792969 L 143.617188 208.792969 L 159.570312 221.648438 L 159.570312 221.359375 L 159.949219 221.648438 L 159.949219 195.886719 L 163.734375 192.101562 L 159.949219 188.3125 L 159.949219 172.230469 L 163.824219 172.230469 L 182.609375 209.347656 L 182.609375 229.65625 L 176.847656 229.65625 L 187.496094 240.253906 L 198.144531 229.65625 L 192.386719 229.65625 L 192.386719 209.347656 L 211.171875 172.230469 L 215.042969 172.230469 L 215.042969 188.3125 L 211.257812 192.101562 L 215.042969 195.886719 L 215.042969 221.648438 L 215.417969 221.359375 L 215.417969 221.648438 L 231.375 208.792969 L 224.824219 208.792969 L 224.824219 196.476562 L 229.199219 192.101562 L 224.824219 187.730469 L 224.824219 175.976562 Z M 228.566406 175.476562 " fill-opacity="1" fill-rule="nonzero"/></g><g clip-path="url(#69d4a9c09e)"><g clip-path="url(#1f578753b5)"><g clip-path="url(#0dcbd16bac)"><path fill="#ffffff" d="M 235.269531 234.492188 C 234.753906 233.96875 233.910156 233.964844 233.390625 234.480469 C 221.3125 246.425781 204.640625 253.464844 187.65625 253.78125 C 170.671875 254.101562 153.75 247.699219 141.226562 236.214844 C 140.6875 235.71875 139.847656 235.753906 139.351562 236.296875 C 138.859375 236.835938 138.894531 237.675781 139.433594 238.171875 C 142.480469 240.964844 145.773438 243.46875 149.261719 245.660156 C 160.683594 252.84375 174.175781 256.691406 187.707031 256.4375 C 205.367188 256.105469 222.699219 248.789062 235.257812 236.367188 C 235.777344 235.851562 235.785156 235.011719 235.269531 234.492188 Z M 235.269531 234.492188 " fill-opacity="1" fill-rule="nonzero"/></g></g></g><g fill="#ffc300" fill-opacity="1"><g transform="translate(119.635392, 267.597639)"><g><path d="M -0.046875 1.234375 L 0.4375 4.296875 L 5.859375 8.34375 L 8.546875 7.84375 L 14.078125 0.453125 L 9.859375 -2.71875 L 7.90625 -0.09375 L 9.46875 1.078125 L 6.6875 4.78125 L 3.34375 2.28125 L 11.578125 -8.703125 L 14.921875 -6.203125 L 13.140625 -3.828125 L 15.796875 -1.828125 L 18.453125 -5.375 L 18.21875 -7.890625 L 12.6875 -12.03125 L 9.53125 -11.546875 Z M -0.046875 1.234375 "/></g></g></g><g fill="#ffc300" fill-opacity="1"><g transform="translate(138.747409, 280.3015)"><g><path d="M 1.34375 0.46875 L -0.125 3.46875 L 2.875 4.921875 L 4.34375 1.921875 Z M 1.34375 0.46875 "/></g></g></g><g fill="#ffc300" fill-opacity="1"><g transform="translate(154.293559, 287.238899)"><g><path d="M 0.734375 0 L -0.078125 3.25 L 6.125 4.796875 L 6.9375 1.546875 L 5.21875 1.109375 L 5.890625 -0.109375 L 10.703125 1.09375 L 10.734375 2.5 L 9.140625 2.09375 L 8.328125 5.34375 L 14.6875 6.921875 L 15.5 3.671875 L 13.875 3.28125 L 13.59375 -14.375 L 10.640625 -15.109375 L 2.078125 0.328125 Z M 10.625 -8.671875 L 10.671875 -2.296875 L 7.53125 -3.09375 Z M 10.625 -8.671875 "/></g></g></g><g fill="#ffc300" fill-opacity="1"><g transform="translate(181.262334, 292.225542)"><g><path d="M 1.40625 -0.125 L 1.296875 3.21875 L 4.640625 3.328125 L 4.75 -0.015625 Z M 1.40625 -0.125 "/></g></g></g><g fill="#ffc300" fill-opacity="1"><g transform="translate(198.437349, 292.378841)"><g><path d="M -2.671875 -17.046875 L -2.03125 -13.78125 L -0.53125 -14.078125 L 2.15625 -0.609375 L 0.65625 -0.3125 L 1.3125 2.96875 L 7.578125 1.71875 L 6.921875 -1.5625 L 5.421875 -1.265625 L 3.796875 -9.375 L 10.84375 1.21875 L 13.1875 -11.234375 L 14.8125 -3.125 L 13.328125 -2.828125 L 13.984375 0.453125 L 20.25 -0.796875 L 19.59375 -4.078125 L 18.09375 -3.78125 L 15.40625 -17.25 L 16.90625 -17.546875 L 16.265625 -20.8125 L 11.796875 -19.921875 L 9.359375 -6.625 L 1.625 -17.890625 Z M -2.671875 -17.046875 "/></g></g></g><g fill="#ffc300" fill-opacity="1"><g transform="translate(228.959463, 284.158711)"><g><path d="M 1.203125 -0.734375 L 2.59375 2.3125 L 5.640625 0.921875 L 4.25 -2.125 Z M 1.203125 -0.734375 "/></g></g></g><g fill="#ffc300" fill-opacity="1"><g transform="translate(244.12175, 276.546456)"><g><path d="M -3.015625 -5.3125 L -1.0625 -2.625 L 0.1875 -3.53125 L 2.390625 -0.515625 L 5.453125 -0.046875 L 10.625 -3.828125 L 11.109375 -6.40625 L 2.125 -18.734375 L 3.359375 -19.640625 L 1.40625 -22.34375 L -3.765625 -18.578125 L -1.8125 -15.875 L -0.578125 -16.78125 L 7.515625 -5.6875 L 4.40625 -3.421875 L 2.875 -5.5 L 4.109375 -6.390625 L 2.15625 -9.078125 Z M -3.015625 -5.3125 "/></g></g></g></svg>